<?xml version="1.0" encoding="UTF-8"?>
<svg id="Calque_1" xmlns="http://www.w3.org/2000/svg" xmlns:xlink="http://www.w3.org/1999/xlink" viewBox="0 0 5000 7072">
  <defs>
    <clipPath id="clippath">
      <rect y=".287098474910636" width="5000" height="7071.425803050179638" style="fill: none;"/>
    </clipPath>
    <clipPath id="clippath-1">
      <rect y=".287098474910636" width="5000" height="7071.425803050179638" style="fill: none;"/>
    </clipPath>
    <clipPath id="clippath-2">
      <rect y=".287098474910636" width="5000" height="7071.425803050179638" style="fill: none;"/>
    </clipPath>
    <clipPath id="clippath-3">
      <rect y=".287098474910636" width="5000" height="7071.425803050179638" style="fill: none;"/>
    </clipPath>
    <clipPath id="clippath-5">
      <rect y=".287098474910636" width="5000" height="7071.425803050179638" style="fill: none;"/>
    </clipPath>
    <clipPath id="clippath-6">
      <rect y=".287098474910636" width="5000" height="7071.425803050179638" style="fill: none;"/>
    </clipPath>
  </defs>
  <path d="M1293.5654296875,590.18505859375c45.740966796875-27.35107421875,101.03369140625-26.94384765625,133.04052734375,26.5830078125,27.54443359375,46.06494140625,6.19775390625,102.42822265625-39.54296875,129.779296875l-37.306396484375,22.3076171875,45.0029296875,75.26171875-41.19921875,24.63525390625-138.50048828125-231.6240234375,78.505615234375-46.94287109375ZM1384.7578125,641.791015625c-14.35498046875-24.005859375-43.26025390625-27.419921875-71.1591796875-10.73779296875l-34.062255859375,20.36767578125,47.3310546875,79.15478515625,34.062255859375-20.36767578125c27.25-16.29443359375,38.9580078125-43.11328125,23.828125-68.4169921875Z" style="fill: #37007d;"/>
  <path d="M1480.4931640625,491.7568359375l90.20166015625,205.1875,123.8740234375-54.4560546875,18.5576171875,42.21435546875-168.51025390625,74.07861328125-108.607421875-247.0556640625,44.484375-19.96875Z" style="fill: #37007d;"/>
  <path d="M1778.484375,380.0859375l163.02978515625,231.5498046875-49.3828125,15.58154296875-30.83447265625-44.96630859375-94.07958984375,29.6845703125.5556640625,54.52001953125-49.0224609375,15.4677734375.9794921875-283.298828125,58.75439453125-18.53857421875ZM1765.32373046875,440.12255859375l1.20263671875,125.658203125,69.568359375-21.95068359375-70.77099609375-103.70751953125Z" style="fill: #37007d;"/>
  <path d="M1876.57568359375,398.3154296875l-9.5380859375-44.7294921875,211.818359375-45.16650390625,9.53759765625,44.7294921875-82.43505859375,17.578125,46.7431640625,219.2109375-46.94775390625,10.0107421875-46.7431640625-219.2109375-82.43505859375,17.57763671875Z" style="fill: #37007d;"/>
  <path d="M2294.91162109375,284.8828125c89.677734375-7.09912109375,141.7587890625,52.09765625,147.27685546875,121.8046875,6.65185546875,84.02587890625-41.95361328125,140.57666015625-128.6171875,147.43701171875l-82.51806640625,6.5322265625-21.29736328125-269.033203125,85.15576171875-6.74072265625ZM2392.044921875,410.27783203125c-3.28125-41.44775390625-27.5625-75.16650390625-71.1435546875-79.6787109375-9.16259765625-.79150390625-19.3955078125-.7392578125-30.69970703125.15576171875l-28.259765625,2.23681640625,14.1083984375,178.22509765625,25.6220703125-2.0283203125c60.6650390625-4.80224609375,95.65234375-32.21728515625,90.37255859375-98.91064453125Z" style="fill: #37007d;"/>
  <path d="M2481.55908203125,441.64892578125l5.41845703125-166.59912109375,47.97705078125,1.56005859375-5.2587890625,161.68798828125c-1.25341796875,38.533203125,20.89404296875,66.86083984375,60.9384765625,68.1630859375,39.66650390625,1.29052734375,63.93701171875-24.0146484375,65.2392578125-64.05908203125l5.2587890625-161.68798828125,47.9775390625,1.560546875-5.41845703125,166.5986328125c-2.322265625,71.400390625-52.60009765625,105.69140625-114.93359375,103.6640625-60.06640625-1.95361328125-109.52099609375-39.48828125-107.19873046875-110.88818359375Z" style="fill: #37007d;"/>
  <path d="M2798.0390625,564.64404296875l6.88427734375-44.44921875c3.9931640625,1.38330078125,14.419921875,5.67578125,33.095703125,8.56787109375,23.90576171875,3.7021484375,46.126953125-3.9482421875,51.39111328125-37.93896484375l27.9404296875-180.41162109375,48.18505859375,7.462890625-27.7666015625,179.291015625c-9.08251953125,58.642578125-46.15380859375,88.08935546875-99.56787109375,79.8173828125-14.94091796875-2.31396484375-34.8486328125-9.60400390625-40.162109375-12.33935546875Z" style="fill: #37007d;"/>
  <path d="M2985.33154296875,456.357421875c20.5087890625-77.8525390625,95.587890625-121.0048828125,171.248046875-101.07373046875,75.65966796875,19.93115234375,119.73486328125,94.47216796875,99.2265625,172.32470703125-20.7978515625,78.94921875-94.298828125,120.5625-171.0546875,100.3427734375-76.75634765625-20.2197265625-120.21728515625-92.64453125-99.419921875-171.59375ZM3205.462890625,513.955078125c14.15380859375-53.72900390625-12.4599609375-102.56298828125-60.34130859375-115.17626953125s-95.099609375,16.77099609375-109.25341796875,70.50048828125c-13.76904296875,52.267578125,11.36279296875,102.27392578125,60.3408203125,115.17626953125,48.9775390625,12.90185546875,95.48486328125-18.23291015625,109.25390625-70.50048828125Z" style="fill: #37007d;"/>
  <path d="M3282.0556640625,572.6611328125l64.00341796875-153.9091796875,44.3232421875,18.431640625-62.11669921875,149.373046875c-14.8037109375,35.59765625-4.10986328125,69.92822265625,32.88427734375,85.3125,36.6455078125,15.23876953125,68.2978515625.15625,83.68212890625-36.837890625l62.11669921875-149.373046875,44.3232421875,18.4326171875-64.00341796875,153.9091796875c-27.43017578125,65.9609375-86.58837890625,80.2490234375-144.173828125,56.3017578125-55.49072265625-23.076171875-88.46923828125-75.67919921875-61.0390625-141.640625Z" style="fill: #37007d;"/>
  <path d="M3700.81982421875,586.9169921875c47.0107421875,27.4306640625,72.607421875,74.3125,45.1767578125,121.3232421875-25.9072265625,44.39892578125-74.7177734375,44.80078125-93.0810546875,38.0234375l17.34033203125,135.27734375-51.58056640625-30.09765625-15.41064453125-125.8359375-24.8115234375-14.4775390625-50.861328125,87.166015625-41.4609375-24.1923828125,136.01123046875-233.0947265625,78.677734375,45.908203125ZM3702.73974609375,685.625c13.90576171875-23.83203125.35888671875-44.8642578125-23.47314453125-58.7705078125l-38.5224609375-22.47802734375-39.431640625,67.57763671875,38.5224609375,22.478515625c23.83203125,13.90625,48.42724609375,16.00390625,62.90478515625-8.8076171875Z" style="fill: #37007d;"/>
  <g style="clip-path: url(#clippath);">
    <path d="M4374.888880367296224,2698.86236791502688L260.889672738710942,4216.595318241499626c310.872488286171574,842.659521652924013,1079.238987134420313,1382.291575455434213,1916.833401654177578,1439.836421647407406l159.682372668430617,432.841088313118235,1674.693596904835431-617.831053454108769-159.682116337105981-432.841088313114597c599.536942574195564-587.727501747667702,833.344441024419211-1497.078796866851008,522.471952738247637-2339.738318519775021" style="fill: #ff5300;"/>
  </g>
  <g>
    <path d="M1246.828125,2421.18359375v84.51171875h51.25146484375v23.43359375h-74.9873046875v-107.9453125h23.73583984375Z" style="fill: #37007d;"/>
    <path d="M1310.024658203125,2499.798828125v-49.28515625h23.282470703125v43.541015625c0,10.431640625,4.535400390625,16.931640625,13.757568359375,16.931640625,9.524658203125,0,14.816162109375-7.4072265625,14.816162109375-18.29296875v-42.1796875h23.2822265625v78.615234375h-23.2822265625v-6.5009765625h-1.058349609375c-3.1748046875,3.62890625-10.280517578125,8.7685546875-20.409912109375,8.7685546875-17.839599609375,0-30.387939453125-12.8505859375-30.387939453125-31.59765625Z" style="fill: #37007d;"/>
    <path d="M1428.1025390625,2450.513671875v7.7099609375c3.0234375-3.62890625,11.3388671875-8.7685546875,22.07275390625-8.7685546875,17.83984375,0,31.294921875,12.8505859375,31.294921875,31.59765625v48.076171875h-23.2822265625v-42.33203125c0-10.431640625-5.4423828125-16.931640625-14.66455078125-16.931640625-9.8271484375,0-15.4208984375,7.55859375-15.4208984375,17.537109375v41.7265625h-23.282470703125v-78.615234375h23.282470703125Z" style="fill: #37007d;"/>
    <path d="M1494.6259765625,2489.669921875c0-23.736328125,16.32763671875-40.21484375,35.67919921875-40.21484375,9.978515625,0,17.083984375,4.08203125,21.3173828125,7.861328125v-39.15625h23.2822265625v110.96875h-23.2822265625v-6.349609375h-1.2099609375c-3.1748046875,3.326171875-9.82666015625,8.4658203125-20.40966796875,8.4658203125-20.2587890625,0-35.376953125-17.8388671875-35.376953125-41.5751953125ZM1551.7734375,2490.123046875c0-12.0947265625-6.349609375-21.1650390625-17.08349609375-21.1650390625-10.28076171875,0-17.38623046875,9.2216796875-17.38623046875,21.1650390625,0,11.3388671875,6.349609375,21.6201171875,17.38623046875,21.6201171875,9.5244140625,0,17.08349609375-8.1640625,17.08349609375-21.6201171875Z" style="fill: #37007d;"/>
    <path d="M1593.04833984375,2428.2890625c0-7.2568359375,5.7451171875-12.8505859375,12.8505859375-12.8505859375,7.2568359375,0,12.85107421875,5.59375,12.85107421875,12.8505859375,0,7.10546875-5.59423828125,12.8505859375-12.85107421875,12.8505859375-7.10546875,0-12.8505859375-5.7451171875-12.8505859375-12.8505859375ZM1617.54052734375,2451.72265625v77.40625h-23.28271484375v-77.40625h23.28271484375Z" style="fill: #37007d;"/>
  </g>
  <g>
    <path d="M1243.95361328125,3135.09765625l25.24755859375,61.9853515625,24.9453125-61.9853515625h32.504638671875v107.9453125h-23.73583984375v-69.0908203125h-.302490234375l-21.014404296875,50.646484375h-24.794189453125l-21.165771484375-49.890625h-.302490234375v68.3349609375h-23.73583984375v-107.9453125h32.353515625Z" style="fill: #37007d;"/>
    <path d="M1344.797607421875,3221.2724609375c0-14.6650390625,10.582763671875-22.375,24.340576171875-25.0966796875,4.686767578125-.9072265625,22.677734375-3.9306640625,27.213134765625-4.53515625,0-4.9892578125-5.14013671875-9.22265625-13.153076171875-9.22265625-6.198486328125,0-11.792236328125,3.0234375-13.15283203125,6.955078125l-22.072998046875-2.4189453125c2.721435546875-10.1298828125,13.30419921875-23.5849609375,36.2841796875-23.5849609375,21.46826171875,0,34.621337890625,13.455078125,34.621337890625,31.4462890625v48.2275390625h-22.526611328125v-8.0126953125h-1.96533203125c-5.29150390625,5.59375-13.30419921875,9.8271484375-22.828857421875,9.8271484375-15.118408203125,0-26.759521484375-10.28125-26.759521484375-23.5849609375ZM1395.29296875,3218.2490234375c1.058349609375-1.9658203125,1.20947265625-3.4775390625,1.20947265625-5.7451171875v-5.2919921875c-4.081787109375.7568359375-7.710205078125,1.361328125-13.757568359375,2.5703125-6.04736328125,1.2099609375-13.908935546875,2.7216796875-13.908935546875,9.3740234375,0,5.291015625,5.14013671875,7.10546875,10.431640625,7.10546875,6.04736328125,0,13.455322265625-3.1748046875,16.025390625-8.0126953125Z" style="fill: #37007d;"/>
    <path d="M1460.3046875,3164.427734375v10.2802734375c3.77978515625-5.140625,15.72314453125-11.3388671875,30.23681640625-11.3388671875v22.677734375c-8.46630859375-1.05859375-16.9326171875-.1513671875-22.22412109375,3.326171875-4.6865234375,3.0234375-8.0126953125,8.6171875-8.0126953125,17.537109375v36.1328125h-23.2822265625v-78.615234375h23.2822265625Z" style="fill: #37007d;"/>
    <path d="M1494.62548828125,3203.583984375c0-23.736328125,16.32763671875-40.21484375,35.67919921875-40.21484375,9.978515625,0,17.083984375,4.08203125,21.31689453125,7.861328125v-39.15625h23.28271484375v110.96875h-23.28271484375v-6.349609375h-1.208984375c-3.17529296875,3.326171875-9.8271484375,8.4658203125-20.41015625,8.4658203125-20.2587890625,0-35.376953125-17.8388671875-35.376953125-41.5751953125ZM1551.77294921875,3204.037109375c0-12.0947265625-6.349609375-21.1650390625-17.083984375-21.1650390625-10.2802734375,0-17.3857421875,9.2216796875-17.3857421875,21.1650390625,0,11.3388671875,6.349609375,21.6201171875,17.3857421875,21.6201171875,9.52490234375,0,17.083984375-8.1640625,17.083984375-21.6201171875Z" style="fill: #37007d;"/>
    <path d="M1593.0478515625,3142.203125c0-7.2568359375,5.7451171875-12.8505859375,12.85107421875-12.8505859375,7.2568359375,0,12.8505859375,5.59375,12.8505859375,12.8505859375,0,7.10546875-5.59375,12.8505859375-12.8505859375,12.8505859375-7.10595703125,0-12.85107421875-5.7451171875-12.85107421875-12.8505859375ZM1617.5400390625,3165.63671875v77.40625h-23.28271484375v-77.40625h23.28271484375Z" style="fill: #37007d;"/>
  </g>
  <g>
    <path d="M1011.27001953125,3849.02734375l25.24755859375,61.9853515625,24.9453125-61.9853515625h32.504638671875v107.9453125h-23.73583984375v-69.0908203125h-.302490234375l-21.014404296875,50.646484375h-24.794189453125l-21.165771484375-49.890625h-.302490234375v68.3349609375h-23.73583984375v-107.9453125h32.353515625Z" style="fill: #37007d;"/>
    <path d="M1110.2998046875,3917.966796875c0-22.375,17.23486328125-40.5166015625,39.761474609375-40.5166015625,22.97998046875,0,38.098388671875,18.29296875,38.098388671875,40.3662109375,0,2.720703125-.1513671875,6.349609375-.45361328125,8.1630859375h-54.275146484375c1.058349609375,7.408203125,8.1640625,13.1533203125,17.38623046875,13.1533203125,7.2568359375,0,12.397216796875-2.8720703125,16.1767578125-7.408203125l17.990966796875,8.466796875c-7.105712890625,11.0361328125-19.95654296875,18.8974609375-34.47021484375,18.8974609375-20.86328125,0-40.21484375-15.5712890625-40.21484375-41.1220703125ZM1150.21240234375,3897.103515625c-9.97802734375,0-16.025390625,6.19921875-17.23486328125,12.548828125h33.26025390625c-1.05810546875-6.5009765625-6.65185546875-12.548828125-16.025390625-12.548828125Z" style="fill: #37007d;"/>
    <path d="M1223.689697265625,3878.357421875v10.2802734375c3.779541015625-5.140625,15.72314453125-11.3388671875,30.23681640625-11.3388671875v22.677734375c-8.46630859375-1.05859375-16.9326171875-.1513671875-22.22412109375,3.326171875-4.686767578125,3.0234375-8.0126953125,8.6171875-8.0126953125,17.537109375v36.1328125h-23.282470703125v-78.615234375h23.282470703125Z" style="fill: #37007d;"/>
    <path d="M1259.67333984375,3917.81640625c0-22.677734375,17.83984375-40.3662109375,40.66845703125-40.3662109375,15.72314453125,0,28.271484375,9.2216796875,33.865234375,21.0146484375l-17.99072265625,8.314453125c-3.326171875-5.7451171875-8.61767578125-9.373046875-15.4208984375-9.373046875-9.97802734375,0-19.04931640625,7.7099609375-19.04931640625,20.7119140625,0,13.1533203125,8.315185546875,21.0146484375,19.04931640625,21.0146484375,7.71044921875,0,12.699462890625-3.9306640625,16.63037109375-8.919921875l17.99072265625,8.6171875c-7.10546875,12.095703125-20.40966796875,20.2587890625-34.62109375,20.2587890625-21.619384765625,0-41.1220703125-15.4208984375-41.1220703125-41.2724609375Z" style="fill: #37007d;"/>
    <path d="M1370.7958984375,3878.357421875v10.2802734375c3.779541015625-5.140625,15.72314453125-11.3388671875,30.23681640625-11.3388671875v22.677734375c-8.46630859375-1.05859375-16.9326171875-.1513671875-22.22412109375,3.326171875-4.686767578125,3.0234375-8.0126953125,8.6171875-8.0126953125,17.537109375v36.1328125h-23.282470703125v-78.615234375h23.282470703125Z" style="fill: #37007d;"/>
    <path d="M1406.779541015625,3917.966796875c0-22.375,17.235107421875-40.5166015625,39.761474609375-40.5166015625,22.97998046875,0,38.09814453125,18.29296875,38.09814453125,40.3662109375,0,2.720703125-.15087890625,6.349609375-.453125,8.1630859375h-54.275390625c1.05859375,7.408203125,8.1640625,13.1533203125,17.38623046875,13.1533203125,7.2568359375,0,12.39697265625-2.8720703125,16.1767578125-7.408203125l17.99072265625,8.466796875c-7.10546875,11.0361328125-19.9560546875,18.8974609375-34.4697265625,18.8974609375-20.86328125,0-40.215087890625-15.5712890625-40.215087890625-41.1220703125ZM1446.69189453125,3897.103515625c-9.97802734375,0-16.025390625,6.19921875-17.23486328125,12.548828125h33.2607421875c-1.05859375-6.5009765625-6.65234375-12.548828125-16.02587890625-12.548828125Z" style="fill: #37007d;"/>
    <path d="M1494.77099609375,3917.513671875c0-23.736328125,16.32763671875-40.21484375,35.67919921875-40.21484375,9.978515625,0,17.083984375,4.08203125,21.31689453125,7.861328125v-39.15625h23.28271484375v110.96875h-23.28271484375v-6.349609375h-1.208984375c-3.17529296875,3.326171875-9.8271484375,8.4658203125-20.41015625,8.4658203125-20.2587890625,0-35.376953125-17.8388671875-35.376953125-41.5751953125ZM1551.91845703125,3917.966796875c0-12.0947265625-6.349609375-21.1650390625-17.083984375-21.1650390625-10.2802734375,0-17.3857421875,9.2216796875-17.3857421875,21.1650390625,0,11.3388671875,6.349609375,21.6201171875,17.3857421875,21.6201171875,9.52490234375,0,17.083984375-8.1640625,17.083984375-21.6201171875Z" style="fill: #37007d;"/>
    <path d="M1593.193359375,3856.1328125c0-7.2568359375,5.7451171875-12.8505859375,12.85107421875-12.8505859375,7.2568359375,0,12.8505859375,5.59375,12.8505859375,12.8505859375,0,7.10546875-5.59375,12.8505859375-12.8505859375,12.8505859375-7.10595703125,0-12.85107421875-5.7451171875-12.85107421875-12.8505859375ZM1617.685546875,3879.56640625v77.40625h-23.28271484375v-77.40625h23.28271484375Z" style="fill: #37007d;"/>
  </g>
  <g>
    <path d="M1245.919677734375,4671.33203125v-22.072265625c1.96533203125.3017578125,5.896240234375,1.3603515625,11.792236328125,1.3603515625,11.3388671875,0,18.595703125-6.5009765625,18.595703125-19.5029296875v-68.18359375h23.73583984375v71.9638671875c0,24.4912109375-14.664794921875,38.2490234375-35.981689453125,38.2490234375-8.0126953125,0-15.874267578125-1.208984375-18.14208984375-1.814453125Z" style="fill: #37007d;"/>
    <path d="M1314.862060546875,4631.873046875c0-22.375,17.235107421875-40.5166015625,39.761474609375-40.5166015625,22.97998046875,0,38.098388671875,18.29296875,38.098388671875,40.3662109375,0,2.720703125-.151123046875,6.349609375-.45361328125,8.1630859375h-54.275146484375c1.058349609375,7.408203125,8.1640625,13.1533203125,17.38623046875,13.1533203125,7.2568359375,0,12.39697265625-2.8720703125,16.1767578125-7.408203125l17.99072265625,8.466796875c-7.10546875,11.0361328125-19.9560546875,18.8974609375-34.4697265625,18.8974609375-20.863525390625,0-40.215087890625-15.5712890625-40.215087890625-41.1220703125ZM1354.774658203125,4611.009765625c-9.978271484375,0-16.025634765625,6.19921875-17.235107421875,12.548828125h33.2607421875c-1.058349609375-6.5009765625-6.65234375-12.548828125-16.025634765625-12.548828125Z" style="fill: #37007d;"/>
    <path d="M1405.574462890625,4641.548828125v-49.28515625h23.282470703125v43.541015625c0,10.431640625,4.53515625,16.931640625,13.7578125,16.931640625,9.5244140625,0,14.81591796875-7.4072265625,14.81591796875-18.29296875v-42.1796875h23.2822265625v78.615234375h-23.2822265625v-6.5009765625h-1.05810546875c-3.17529296875,3.62890625-10.28076171875,8.7685546875-20.41015625,8.7685546875-17.83984375,0-30.387939453125-12.8505859375-30.387939453125-31.59765625Z" style="fill: #37007d;"/>
    <path d="M1494.625,4631.419921875c0-23.736328125,16.32763671875-40.21484375,35.67919921875-40.21484375,9.978515625,0,17.083984375,4.08203125,21.3173828125,7.861328125v-39.15625h23.2822265625v110.96875h-23.2822265625v-6.349609375h-1.2099609375c-3.1748046875,3.326171875-9.82666015625,8.4658203125-20.40966796875,8.4658203125-20.2587890625,0-35.376953125-17.8388671875-35.376953125-41.5751953125ZM1551.7724609375,4631.873046875c0-12.0947265625-6.349609375-21.1650390625-17.08349609375-21.1650390625-10.28076171875,0-17.38623046875,9.2216796875-17.38623046875,21.1650390625,0,11.3388671875,6.349609375,21.6201171875,17.38623046875,21.6201171875,9.5244140625,0,17.08349609375-8.1640625,17.08349609375-21.6201171875Z" style="fill: #37007d;"/>
    <path d="M1593.04736328125,4570.0390625c0-7.2568359375,5.7451171875-12.8505859375,12.8505859375-12.8505859375,7.2568359375,0,12.85107421875,5.59375,12.85107421875,12.8505859375,0,7.10546875-5.59423828125,12.8505859375-12.85107421875,12.8505859375-7.10546875,0-12.8505859375-5.7451171875-12.8505859375-12.8505859375ZM1617.53955078125,4593.47265625v77.40625h-23.28271484375v-77.40625h23.28271484375Z" style="fill: #37007d;"/>
  </g>
  <g>
    <path d="M991.91748046875,5276.85546875l23.886962890625,85.267578125,23.88720703125-85.267578125h26.91064453125l-32.504638671875,107.9453125h-36.58642578125l-32.504638671875-107.9453125h26.910888671875Z" style="fill: #37007d;"/>
    <path d="M1067.81396484375,5345.794921875c0-22.375,17.23486328125-40.5166015625,39.761474609375-40.5166015625,22.97998046875,0,38.098388671875,18.29296875,38.098388671875,40.3662109375,0,2.720703125-.1513671875,6.349609375-.45361328125,8.1630859375h-54.275146484375c1.058349609375,7.408203125,8.1640625,13.1533203125,17.38623046875,13.1533203125,7.2568359375,0,12.397216796875-2.8720703125,16.1767578125-7.408203125l17.990966796875,8.466796875c-7.105712890625,11.0361328125-19.95654296875,18.8974609375-34.47021484375,18.8974609375-20.86328125,0-40.21484375-15.5712890625-40.21484375-41.1220703125ZM1107.7265625,5324.931640625c-9.97802734375,0-16.025390625,6.19921875-17.23486328125,12.548828125h33.26025390625c-1.05810546875-6.5009765625-6.65185546875-12.548828125-16.025390625-12.548828125Z" style="fill: #37007d;"/>
    <path d="M1181.203857421875,5306.185546875v7.7099609375c3.023681640625-3.62890625,11.338623046875-8.7685546875,22.07275390625-8.7685546875,17.83984375,0,31.295166015625,12.8505859375,31.295166015625,31.59765625v48.076171875h-23.2822265625v-42.33203125c0-10.431640625-5.44287109375-16.931640625-14.6650390625-16.931640625-9.826904296875,0-15.420654296875,7.55859375-15.420654296875,17.537109375v41.7265625h-23.282470703125v-78.615234375h23.282470703125Z" style="fill: #37007d;"/>
    <path d="M1247.727294921875,5345.341796875c0-23.736328125,16.327880859375-40.21484375,35.679443359375-40.21484375,9.97802734375,0,17.083740234375,4.08203125,21.31689453125,7.861328125v-39.15625h23.2822265625v110.96875h-23.2822265625v-6.349609375h-1.20947265625c-3.1748046875,3.326171875-9.826904296875,8.4658203125-20.409912109375,8.4658203125-20.258544921875,0-35.376953125-17.8388671875-35.376953125-41.5751953125ZM1304.874755859375,5345.794921875c0-12.0947265625-6.349609375-21.1650390625-17.083740234375-21.1650390625-10.280517578125,0-17.38623046875,9.2216796875-17.38623046875,21.1650390625,0,11.3388671875,6.349853515625,21.6201171875,17.38623046875,21.6201171875,9.524658203125,0,17.083740234375-8.1640625,17.083740234375-21.6201171875Z" style="fill: #37007d;"/>
    <path d="M1370.944091796875,5306.185546875v10.2802734375c3.779541015625-5.140625,15.72314453125-11.3388671875,30.23681640625-11.3388671875v22.677734375c-8.46630859375-1.05859375-16.9326171875-.1513671875-22.22412109375,3.326171875-4.686767578125,3.0234375-8.0126953125,8.6171875-8.0126953125,17.537109375v36.1328125h-23.282470703125v-78.615234375h23.282470703125Z" style="fill: #37007d;"/>
    <path d="M1406.927734375,5345.794921875c0-22.375,17.23486328125-40.5166015625,39.76123046875-40.5166015625,22.97998046875,0,38.0986328125,18.29296875,38.0986328125,40.3662109375,0,2.720703125-.1513671875,6.349609375-.45361328125,8.1630859375h-54.27490234375c1.05810546875,7.408203125,8.16357421875,13.1533203125,17.3857421875,13.1533203125,7.2568359375,0,12.3974609375-2.8720703125,16.1767578125-7.408203125l17.9912109375,8.466796875c-7.10595703125,11.0361328125-19.95654296875,18.8974609375-34.47021484375,18.8974609375-20.86328125,0-40.21484375-15.5712890625-40.21484375-41.1220703125ZM1446.84033203125,5324.931640625c-9.97802734375,0-16.025390625,6.19921875-17.23486328125,12.548828125h33.26025390625c-1.05810546875-6.5009765625-6.65185546875-12.548828125-16.025390625-12.548828125Z" style="fill: #37007d;"/>
    <path d="M1494.767578125,5345.341796875c0-23.736328125,16.32763671875-40.21484375,35.67919921875-40.21484375,9.978515625,0,17.083984375,4.08203125,21.3173828125,7.861328125v-39.15625h23.2822265625v110.96875h-23.2822265625v-6.349609375h-1.2099609375c-3.1748046875,3.326171875-9.82666015625,8.4658203125-20.40966796875,8.4658203125-20.2587890625,0-35.376953125-17.8388671875-35.376953125-41.5751953125ZM1551.9150390625,5345.794921875c0-12.0947265625-6.349609375-21.1650390625-17.08349609375-21.1650390625-10.28076171875,0-17.38623046875,9.2216796875-17.38623046875,21.1650390625,0,11.3388671875,6.349609375,21.6201171875,17.38623046875,21.6201171875,9.5244140625,0,17.08349609375-8.1640625,17.08349609375-21.6201171875Z" style="fill: #37007d;"/>
    <path d="M1593.18994140625,5283.9609375c0-7.2568359375,5.7451171875-12.8505859375,12.8505859375-12.8505859375,7.2568359375,0,12.85107421875,5.59375,12.85107421875,12.8505859375,0,7.10546875-5.59423828125,12.8505859375-12.85107421875,12.8505859375-7.10546875,0-12.8505859375-5.7451171875-12.8505859375-12.8505859375ZM1617.68212890625,5307.39453125v77.40625h-23.28271484375v-77.40625h23.28271484375Z" style="fill: #37007d;"/>
  </g>
  <g>
    <path d="M1853.04345703125,985.48291015625v65.93505859375h-142.369140625v48.71630859375h133.1298828125v65.9345703125h-133.1298828125v119.27099609375h-65.9345703125v-299.85693359375h208.3037109375Z" style="fill: #ff5300;"/>
    <path d="M1874.0439453125,1176.568359375c0-62.9951171875,49.97607421875-112.55126953125,112.97119140625-112.55126953125,63.4150390625,0,112.97119140625,49.55615234375,112.97119140625,112.55126953125,0,71.814453125-54.595703125,114.6513671875-112.97119140625,114.6513671875-57.95556640625,0-112.97119140625-42.8369140625-112.97119140625-114.6513671875ZM2039.93115234375,1176.568359375c0-36.1171875-25.1982421875-57.53564453125-52.916015625-57.53564453125s-52.916015625,21.41845703125-52.916015625,57.53564453125c0,36.537109375,23.09814453125,59.6357421875,52.916015625,59.6357421875,29.8173828125,0,52.916015625-23.0986328125,52.916015625-59.6357421875Z" style="fill: #ff5300;"/>
    <path d="M2127.705078125,1176.568359375c0-62.9951171875,49.97607421875-112.55126953125,112.97119140625-112.55126953125,63.4150390625,0,112.97119140625,49.55615234375,112.97119140625,112.55126953125,0,71.814453125-54.595703125,114.6513671875-112.97119140625,114.6513671875-57.95556640625,0-112.97119140625-42.8369140625-112.97119140625-114.6513671875ZM2293.59228515625,1176.568359375c0-36.1171875-25.1982421875-57.53564453125-52.916015625-57.53564453125s-52.916015625,21.41845703125-52.916015625,57.53564453125c0,36.537109375,23.09814453125,59.6357421875,52.916015625,59.6357421875,29.8173828125,0,52.916015625-23.0986328125,52.916015625-59.6357421875Z" style="fill: #ff5300;"/>
    <path d="M2380.94677734375,1175.728515625c0-65.93505859375,45.3564453125-111.71142578125,99.1123046875-111.71142578125,27.7177734375,0,47.4560546875,11.3388671875,59.21533203125,21.837890625v-108.771484375h64.6748046875v308.25634765625h-64.6748046875v-17.638671875h-3.35986328125c-8.8193359375,9.2392578125-27.2978515625,23.5185546875-56.69580078125,23.5185546875-56.275390625,0-98.27197265625-49.556640625-98.27197265625-115.4912109375ZM2539.6943359375,1176.98828125c0-33.59765625-17.638671875-58.79541015625-47.45654296875-58.79541015625-28.5576171875,0-48.2958984375,25.61767578125-48.2958984375,58.79541015625,0,31.49755859375,17.638671875,60.0556640625,48.2958984375,60.0556640625,26.4580078125,0,47.45654296875-22.6787109375,47.45654296875-60.0556640625Z" style="fill: #ff5300;"/>
    <path d="M2730.77685546875,985.48291015625v234.76171875h142.369140625v65.09521484375h-208.3037109375v-299.85693359375h65.9345703125Z" style="fill: #ff5300;"/>
    <path d="M2897.921875,1224.8642578125c0-40.73681640625,29.3974609375-62.15478515625,67.61474609375-69.71435546875,13.01904296875-2.52001953125,62.9951171875-10.91943359375,75.59423828125-12.59912109375,0-13.85888671875-14.27880859375-25.6181640625-36.537109375-25.6181640625-17.21875,0-32.7578125,8.3994140625-36.53759765625,19.31884765625l-61.31494140625-6.7197265625c7.55908203125-28.1376953125,36.95703125-65.5146484375,100.7919921875-65.5146484375,59.6357421875,0,96.1728515625,37.376953125,96.1728515625,87.35302734375v133.9697265625h-62.5751953125v-22.2578125h-5.45947265625c-14.69921875,15.5380859375-36.95751953125,27.2978515625-63.41552734375,27.2978515625-41.99658203125,0-74.333984375-28.55859375-74.333984375-65.515625ZM3038.19091796875,1216.46533203125c2.93994140625-5.4599609375,3.35986328125-9.65966796875,3.35986328125-15.958984375v-14.69873046875c-11.33935546875,2.099609375-21.41845703125,3.77978515625-38.21728515625,7.13916015625-16.79833984375,3.35986328125-38.63671875,7.5595703125-38.63671875,26.0380859375,0,14.69873046875,14.27880859375,19.73876953125,28.9775390625,19.73876953125,16.798828125,0,37.376953125-8.8193359375,44.5166015625-22.25830078125Z" style="fill: #ff5300;"/>
    <path d="M3222.13623046875,1267.701171875h-3.359375v17.638671875h-64.67529296875v-308.25634765625h64.67529296875v108.771484375c11.7587890625-10.4990234375,31.49755859375-21.837890625,59.21533203125-21.837890625,53.755859375,0,99.1123046875,45.7763671875,99.1123046875,111.71142578125,0,65.9345703125-41.99658203125,115.4912109375-98.2724609375,115.4912109375-28.1376953125,0-46.1962890625-12.1796875-56.69580078125-23.5185546875ZM3314.109375,1176.98828125c0-33.177734375-20.15869140625-58.79541015625-48.71630859375-58.79541015625-29.81787109375,0-47.03662109375,25.19775390625-47.03662109375,58.79541015625,0,37.376953125,20.57861328125,60.0556640625,47.03662109375,60.0556640625,30.65771484375,0,48.71630859375-28.55810546875,48.71630859375-60.0556640625Z" style="fill: #ff5300;"/>
  </g>
  <g>
    <path d="M302.38427734375,6663.3251953125v-10.1640625h48.1318359375v10.1640625h-18.73193359375v49.8115234375h-10.66796875v-49.8115234375h-18.73193359375Z" style="fill: #37007d;"/>
    <path d="M346.9853515625,6691.884765625c0-12.34765625,9.239990234375-22.0078125,21.755859375-22.0078125s21.755859375,9.66015625,21.755859375,22.0078125c0,13.01953125-9.911865234375,22.259765625-21.755859375,22.259765625s-21.755859375-9.240234375-21.755859375-22.259765625ZM380.417236328125,6691.6328125c0-7.4755859375-4.9560546875-12.68359375-11.676025390625-12.68359375s-11.676025390625,5.2080078125-11.676025390625,12.68359375c0,7.5595703125,4.6201171875,13.439453125,11.676025390625,13.439453125s11.676025390625-5.8798828125,11.676025390625-13.439453125Z" style="fill: #37007d;"/>
    <path d="M398.305419921875,6698.0166015625v-26.8798828125h9.659912109375v24.1923828125c0,6.1318359375,3.10791015625,9.4072265625,8.48388671875,9.4072265625,6.300048828125,0,9.156005859375-4.955078125,9.156005859375-9.9111328125v-23.6884765625h9.659912109375v42h-9.659912109375v-4.2001953125h-.419921875c-1.93212890625,2.2685546875-5.712158203125,5.1240234375-11.424072265625,5.1240234375-8.65185546875,0-15.455810546875-6.8037109375-15.455810546875-16.0439453125Z" style="fill: #37007d;"/>
    <path d="M442.2333984375,6701.29296875l9.659912109375-1.8486328125c1.76416015625,3.9482421875,6.300048828125,6.1328125,10.5,6.1328125,4.6201171875,0,7.47607421875-2.0166015625,7.47607421875-4.5361328125,0-3.2763671875-4.6201171875-4.4521484375-7.89599609375-5.2919921875l-5.4599609375-1.4287109375c-5.2919921875-1.427734375-11.424072265625-4.283203125-11.424072265625-11.84375,0-7.7275390625,7.47607421875-12.599609375,16.1279296875-12.599609375,9.407958984375,0,16.2119140625,6.1318359375,17.555908203125,11.591796875l-8.98779296875,1.763671875c-1.260009765625-2.18359375-3.780029296875-5.1240234375-8.736083984375-5.1240234375-3.44384765625,0-6.1318359375,1.6806640625-6.1318359375,4.1162109375,0,2.7724609375,2.85595703125,3.5283203125,6.5517578125,4.5361328125l4.6201171875,1.259765625c6.803955078125,1.8486328125,13.43994140625,4.8720703125,13.43994140625,12.6005859375,0,8.4833984375-8.904052734375,13.607421875-17.219970703125,13.5234375-10.248046875-.083984375-17.723876953125-5.8798828125-20.075927734375-12.8515625Z" style="fill: #37007d;"/>
    <path d="M517.82861328125,6671.13671875v3.8642578125c2.43603515625-2.4365234375,6.300048828125-4.9560546875,11.927978515625-4.9560546875,8.652099609375,0,16.2119140625,6.8876953125,16.2119140625,15.7919921875v27.2998046875h-9.659912109375v-23.771484375c0-6.1328125-3.528076171875-9.912109375-8.904052734375-9.912109375-6.3837890625,0-9.575927734375,5.4599609375-9.575927734375,10.1640625v23.51953125h-9.659912109375v-42h9.659912109375Z" style="fill: #37007d;"/>
    <path d="M553.693115234375,6691.884765625c0-12.34765625,9.239990234375-22.0078125,21.755859375-22.0078125s21.755859375,9.66015625,21.755859375,22.0078125c0,13.01953125-9.911865234375,22.259765625-21.755859375,22.259765625s-21.755859375-9.240234375-21.755859375-22.259765625ZM587.125,6691.6328125c0-7.4755859375-4.9560546875-12.68359375-11.676025390625-12.68359375s-11.676025390625,5.2080078125-11.676025390625,12.68359375c0,7.5595703125,4.6201171875,13.439453125,11.676025390625,13.439453125s11.676025390625-5.8798828125,11.676025390625-13.439453125Z" style="fill: #37007d;"/>
    <path d="M601.401123046875,6701.29296875l9.659912109375-1.8486328125c1.76416015625,3.9482421875,6.300048828125,6.1328125,10.5,6.1328125,4.6201171875,0,7.47607421875-2.0166015625,7.47607421875-4.5361328125,0-3.2763671875-4.6201171875-4.4521484375-7.89599609375-5.2919921875l-5.4599609375-1.4287109375c-5.2919921875-1.427734375-11.424072265625-4.283203125-11.424072265625-11.84375,0-7.7275390625,7.47607421875-12.599609375,16.1279296875-12.599609375,9.407958984375,0,16.2119140625,6.1318359375,17.555908203125,11.591796875l-8.98779296875,1.763671875c-1.260009765625-2.18359375-3.780029296875-5.1240234375-8.736083984375-5.1240234375-3.44384765625,0-6.1318359375,1.6806640625-6.1318359375,4.1162109375,0,2.7724609375,2.85595703125,3.5283203125,6.5517578125,4.5361328125l4.6201171875,1.259765625c6.803955078125,1.8486328125,13.43994140625,4.8720703125,13.43994140625,12.6005859375,0,8.4833984375-8.904052734375,13.607421875-17.219970703125,13.5234375-10.248046875-.083984375-17.723876953125-5.8798828125-20.075927734375-12.8515625Z" style="fill: #37007d;"/>
    <path d="M676.996337890625,6671.13671875v3.6962890625c2.77197265625-2.6884765625,6.719970703125-4.9560546875,12.095947265625-4.9560546875,10.66796875,0,18.73193359375,9.4921875,18.73193359375,21.923828125,0,12.263671875-8.14794921875,22.17578125-18.64794921875,22.17578125-5.8798828125,0-9.827880859375-2.3515625-12.179931640625-5.2080078125v19.65625h-9.659912109375v-57.2880859375h9.659912109375ZM697.576416015625,6691.884765625c0-7.1396484375-3.780029296875-12.767578125-10.248046875-12.767578125-6.552001953125,0-10.5,5.2080078125-10.5,12.8515625,0,7.3076171875,3.864013671875,12.767578125,10.5,12.767578125,5.9638671875,0,10.248046875-5.1240234375,10.248046875-12.8515625Z" style="fill: #37007d;"/>
    <path d="M725.880126953125,6671.13671875v5.5439453125c2.18408203125-3.8642578125,8.400146484375-7.1396484375,15.4560546875-6.8037109375v10.8359375c-4.283935546875-.755859375-9.156005859375-.587890625-12.347900390625,2.435546875-2.68798828125,2.5205078125-3.108154296875,5.6279296875-3.108154296875,8.98828125v21h-9.659912109375v-42h9.659912109375Z" style="fill: #37007d;"/>
    <path d="M746.7939453125,6658.62109375c0-3.5283203125,2.77197265625-6.2998046875,6.300048828125-6.2998046875,3.52783203125,0,6.300048828125,2.771484375,6.300048828125,6.2998046875s-2.772216796875,6.2998046875-6.300048828125,6.2998046875c-3.528076171875,0-6.300048828125-2.771484375-6.300048828125-6.2998046875ZM757.9658203125,6671.13671875v42h-9.659912109375v-42h9.659912109375Z" style="fill: #37007d;"/>
    <path d="M766.5322265625,6671.13671875h11.67578125l7.89599609375,12.01171875,7.72802734375-12.01171875h11.760009765625l-13.608154296875,20.076171875,15.5400390625,21.923828125h-11.843994140625l-9.575927734375-13.5244140625-9.239990234375,13.5244140625h-12.263916015625l15.7080078125-21.923828125-13.77587890625-20.076171875Z" style="fill: #37007d;"/>
    <path d="M830.199951171875,6701.29296875l9.659912109375-1.8486328125c1.76416015625,3.9482421875,6.300048828125,6.1328125,10.5,6.1328125,4.6201171875,0,7.47607421875-2.0166015625,7.47607421875-4.5361328125,0-3.2763671875-4.6201171875-4.4521484375-7.89599609375-5.2919921875l-5.4599609375-1.4287109375c-5.2919921875-1.427734375-11.424072265625-4.283203125-11.424072265625-11.84375,0-7.7275390625,7.47607421875-12.599609375,16.1279296875-12.599609375,9.407958984375,0,16.2119140625,6.1318359375,17.555908203125,11.591796875l-8.98779296875,1.763671875c-1.260009765625-2.18359375-3.780029296875-5.1240234375-8.736083984375-5.1240234375-3.44384765625,0-6.1318359375,1.6806640625-6.1318359375,4.1162109375,0,2.7724609375,2.85595703125,3.5283203125,6.5517578125,4.5361328125l4.6201171875,1.259765625c6.803955078125,1.8486328125,13.43994140625,4.8720703125,13.43994140625,12.6005859375,0,8.4833984375-8.904052734375,13.607421875-17.219970703125,13.5234375-10.248046875-.083984375-17.723876953125-5.8798828125-20.075927734375-12.8515625Z" style="fill: #37007d;"/>
    <path d="M873.28857421875,6691.884765625c0-12.34765625,9.239990234375-22.0078125,21.755859375-22.0078125s21.755859375,9.66015625,21.755859375,22.0078125c0,13.01953125-9.911865234375,22.259765625-21.755859375,22.259765625s-21.755859375-9.240234375-21.755859375-22.259765625ZM906.720458984375,6691.6328125c0-7.4755859375-4.9560546875-12.68359375-11.676025390625-12.68359375s-11.676025390625,5.2080078125-11.676025390625,12.68359375c0,7.5595703125,4.6201171875,13.439453125,11.676025390625,13.439453125s11.676025390625-5.8798828125,11.676025390625-13.439453125Z" style="fill: #37007d;"/>
    <path d="M934.2685546875,6671.13671875v3.8642578125c2.43603515625-2.4365234375,6.300048828125-4.9560546875,11.927978515625-4.9560546875,8.652099609375,0,16.2119140625,6.8876953125,16.2119140625,15.7919921875v27.2998046875h-9.659912109375v-23.771484375c0-6.1328125-3.528076171875-9.912109375-8.904052734375-9.912109375-6.3837890625,0-9.575927734375,5.4599609375-9.575927734375,10.1640625v23.51953125h-9.659912109375v-42h9.659912109375Z" style="fill: #37007d;"/>
    <path d="M975.92919921875,6701.796875v-22.091796875h-7.64404296875v-8.568359375h7.64404296875v-11.00390625h9.659912109375v11.00390625h12.431884765625v8.568359375h-12.431884765625v18.8994140625c0,3.8642578125,1.679931640625,6.3837890625,5.7119140625,6.3837890625,2.35205078125,0,3.947998046875-.419921875,5.544189453125-.923828125v8.400390625c-1.343994140625.587890625-3.696044921875,1.595703125-8.568115234375,1.595703125-7.055908203125,0-12.347900390625-5.3759765625-12.347900390625-12.263671875Z" style="fill: #37007d;"/>
    <path d="M1065.469482421875,6695.6650390625h-31.66796875c.840087890625,5.3759765625,5.880126953125,9.4921875,11.424072265625,9.4921875,4.115966796875,0,7.475830078125-2.0166015625,10.079833984375-5.1240234375l8.31591796875,3.86328125c-3.10791015625,5.0400390625-10.247802734375,10.248046875-18.731689453125,10.248046875-12.18017578125,0-21.16796875-9.576171875-21.16796875-22.17578125,0-12.1796875,8.90380859375-22.091796875,21.3359375-22.091796875,12.935791015625,0,20.579833984375,10.583984375,20.579833984375,22.091796875,0,1.0078125-.083984375,2.6884765625-.16796875,3.6962890625ZM1044.9736328125,6678.78125c-5.712158203125,0-10.080078125,3.779296875-11.340087890625,8.5673828125h21.923828125c-.755859375-4.8720703125-4.619873046875-8.5673828125-10.583740234375-8.5673828125Z" style="fill: #37007d;"/>
    <path d="M1067.902587890625,6671.13671875h11.67578125l7.89599609375,12.01171875,7.72802734375-12.01171875h11.760009765625l-13.60791015625,20.076171875,15.539794921875,21.923828125h-11.843994140625l-9.575927734375-13.5244140625-9.239990234375,13.5244140625h-12.263916015625l15.7080078125-21.923828125-13.77587890625-20.076171875Z" style="fill: #37007d;"/>
    <path d="M1124.179443359375,6671.13671875v3.6962890625c2.77197265625-2.6884765625,6.719970703125-4.9560546875,12.095947265625-4.9560546875,10.66796875,0,18.73193359375,9.4921875,18.73193359375,21.923828125,0,12.263671875-8.14794921875,22.17578125-18.64794921875,22.17578125-5.8798828125,0-9.827880859375-2.3515625-12.179931640625-5.2080078125v19.65625h-9.659912109375v-57.2880859375h9.659912109375ZM1144.759521484375,6691.884765625c0-7.1396484375-3.780029296875-12.767578125-10.248046875-12.767578125-6.552001953125,0-10.5,5.2080078125-10.5,12.8515625,0,7.3076171875,3.864013671875,12.767578125,10.5,12.767578125,5.9638671875,0,10.248046875-5.1240234375,10.248046875-12.8515625Z" style="fill: #37007d;"/>
    <path d="M1173.063232421875,6671.13671875v5.5439453125c2.18408203125-3.8642578125,8.400146484375-7.1396484375,15.4560546875-6.8037109375v10.8359375c-4.283935546875-.755859375-9.156005859375-.587890625-12.347900390625,2.435546875-2.68798828125,2.5205078125-3.108154296875,5.6279296875-3.108154296875,8.98828125v21h-9.659912109375v-42h9.659912109375Z" style="fill: #37007d;"/>
    <path d="M1193.97705078125,6658.62109375c0-3.5283203125,2.77197265625-6.2998046875,6.300048828125-6.2998046875,3.52783203125,0,6.300048828125,2.771484375,6.300048828125,6.2998046875s-2.772216796875,6.2998046875-6.300048828125,6.2998046875c-3.528076171875,0-6.300048828125-2.771484375-6.300048828125-6.2998046875ZM1205.14892578125,6671.13671875v42h-9.659912109375v-42h9.659912109375Z" style="fill: #37007d;"/>
    <path d="M1226.735107421875,6671.13671875v3.6123046875c2.43603515625-2.3525390625,6.132080078125-4.7041015625,11.508056640625-4.7041015625,5.1240234375,0,10.163818359375,2.6875,13.02001953125,6.8876953125,2.68798828125-3.52734375,7.895751953125-6.8876953125,14.19580078125-6.8876953125,8.06396484375,0,15.7080078125,6.6357421875,15.7080078125,15.5400390625v27.5517578125h-9.659912109375v-23.771484375c0-6.1328125-3.360107421875-9.912109375-8.484130859375-9.912109375-6.0478515625,0-9.07177734375,5.4599609375-9.07177734375,10.1640625v23.51953125h-9.66015625v-23.771484375c0-6.1328125-3.35986328125-9.912109375-8.48388671875-9.912109375-6.0478515625,0-9.072021484375,5.4599609375-9.072021484375,10.1640625v23.51953125h-9.659912109375v-42h9.659912109375Z" style="fill: #37007d;"/>
    <path d="M1330.721435546875,6695.6650390625h-31.66796875c.840087890625,5.3759765625,5.880126953125,9.4921875,11.424072265625,9.4921875,4.115966796875,0,7.475830078125-2.0166015625,10.079833984375-5.1240234375l8.31591796875,3.86328125c-3.10791015625,5.0400390625-10.247802734375,10.248046875-18.731689453125,10.248046875-12.18017578125,0-21.16796875-9.576171875-21.16796875-22.17578125,0-12.1796875,8.90380859375-22.091796875,21.3359375-22.091796875,12.935791015625,0,20.579833984375,10.583984375,20.579833984375,22.091796875,0,1.0078125-.083984375,2.6884765625-.16796875,3.6962890625ZM1310.2255859375,6678.78125c-5.712158203125,0-10.080078125,3.779296875-11.340087890625,8.5673828125h21.923828125c-.755859375-4.8720703125-4.619873046875-8.5673828125-10.583740234375-8.5673828125ZM1303.589599609375,6663.9130859375l9.743896484375-14.2802734375h12.179931640625l-12.683837890625,14.2802734375h-9.239990234375Z" style="fill: #37007d;"/>
    <path d="M1334.666259765625,6701.29296875l9.659912109375-1.8486328125c1.76416015625,3.9482421875,6.300048828125,6.1328125,10.5,6.1328125,4.6201171875,0,7.47607421875-2.0166015625,7.47607421875-4.5361328125,0-3.2763671875-4.6201171875-4.4521484375-7.89599609375-5.2919921875l-5.4599609375-1.4287109375c-5.2919921875-1.427734375-11.424072265625-4.283203125-11.424072265625-11.84375,0-7.7275390625,7.47607421875-12.599609375,16.1279296875-12.599609375,9.407958984375,0,16.2119140625,6.1318359375,17.555908203125,11.591796875l-8.98779296875,1.763671875c-1.260009765625-2.18359375-3.780029296875-5.1240234375-8.736083984375-5.1240234375-3.44384765625,0-6.1318359375,1.6806640625-6.1318359375,4.1162109375,0,2.7724609375,2.85595703125,3.5283203125,6.5517578125,4.5361328125l4.6201171875,1.259765625c6.803955078125,1.8486328125,13.43994140625,4.8720703125,13.43994140625,12.6005859375,0,8.4833984375-8.904052734375,13.607421875-17.219970703125,13.5234375-10.248046875-.083984375-17.723876953125-5.8798828125-20.075927734375-12.8515625Z" style="fill: #37007d;"/>
  </g>
  <g>
    <path d="M346.484130859375,6796.4541015625h-31.66796875c.840087890625,5.3759765625,5.880126953125,9.4921875,11.424072265625,9.4921875,4.115966796875,0,7.475830078125-2.0166015625,10.079833984375-5.1240234375l8.31591796875,3.86328125c-3.10791015625,5.0400390625-10.247802734375,10.248046875-18.731689453125,10.248046875-12.18017578125,0-21.16796875-9.576171875-21.16796875-22.17578125,0-12.1796875,8.90380859375-22.091796875,21.3359375-22.091796875,12.935791015625,0,20.579833984375,10.583984375,20.579833984375,22.091796875,0,1.0078125-.083984375,2.6884765625-.16796875,3.6962890625ZM325.98828125,6779.5703125c-5.712158203125,0-10.080078125,3.779296875-11.340087890625,8.5673828125h21.923828125c-.755859375-4.8720703125-4.619873046875-8.5673828125-10.583740234375-8.5673828125Z" style="fill: #37007d;"/>
    <path d="M363.616943359375,6771.92578125v3.8642578125c2.43603515625-2.4365234375,6.300048828125-4.9560546875,11.927978515625-4.9560546875,8.652099609375,0,16.2119140625,6.8876953125,16.2119140625,15.7919921875v27.2998046875h-9.659912109375v-23.771484375c0-6.1328125-3.528076171875-9.912109375-8.904052734375-9.912109375-6.3837890625,0-9.575927734375,5.4599609375-9.575927734375,10.1640625v23.51953125h-9.659912109375v-42h9.659912109375Z" style="fill: #37007d;"/>
    <path d="M419.47216796875,6780.494140625v-8.568359375h8.988037109375v-6.4677734375c0-7.1396484375,4.619873046875-13.9443359375,13.52392578125-13.9443359375,4.703857421875,0,7.727783203125,1.0927734375,8.56787109375,1.3447265625v8.4833984375c-.671875-.16796875-2.77197265625-.755859375-5.6279296875-.755859375-3.947998046875,0-6.803955078125,2.6884765625-6.803955078125,6.5517578125v4.7880859375h13.18798828125v8.568359375h-13.18798828125v33.431640625h-9.659912109375v-33.431640625h-8.988037109375Z" style="fill: #37007d;"/>
    <path d="M467.265625,6771.92578125v5.5439453125c2.18408203125-3.8642578125,8.39990234375-7.1396484375,15.4560546875-6.8037109375v10.8359375c-4.283935546875-.755859375-9.156005859375-.587890625-12.347900390625,2.435546875-2.68798828125,2.5205078125-3.108154296875,5.6279296875-3.108154296875,8.98828125v21h-9.659912109375v-42h9.659912109375Z" style="fill: #37007d;"/>
    <path d="M486.919677734375,6801.830078125c0-8.400390625,6.803955078125-12.2646484375,14.615966796875-13.6923828125,3.27587890625-.587890625,11.00390625-1.763671875,13.355712890625-2.099609375,0-3.6123046875-3.35986328125-6.5517578125-8.06396484375-6.5517578125-4.115966796875,0-6.971923828125,2.099609375-8.06396484375,4.53515625l-9.995849609375-1.0078125c1.260009765625-5.7119140625,7.72802734375-12.34765625,18.059814453125-12.34765625,11.340087890625,0,17.555908203125,6.8037109375,17.555908203125,16.0439453125v27.2158203125h-9.491943359375v-4.9560546875h-.587890625c-2.68798828125,3.1083984375-6.971923828125,5.9638671875-12.599853515625,5.9638671875-8.652099609375,0-14.783935546875-5.2919921875-14.783935546875-13.103515625ZM514.387451171875,6800.822265625c.588134765625-1.2607421875.588134765625-2.4365234375.588134765625-3.6962890625v-3.6123046875c-2.35205078125.3359375-5.3759765625.923828125-9.072021484375,1.595703125-3.947998046875.7568359375-8.484130859375,2.0166015625-8.484130859375,6.216796875,0,3.275390625,3.024169921875,5.0400390625,6.97216796875,5.0400390625,4.199951171875,0,8.65185546875-2.6884765625,9.995849609375-5.5439453125Z" style="fill: #37007d;"/>
    <path d="M544.12060546875,6771.92578125v3.8642578125c2.43603515625-2.4365234375,6.300048828125-4.9560546875,11.927978515625-4.9560546875,8.652099609375,0,16.2119140625,6.8876953125,16.2119140625,15.7919921875v27.2998046875h-9.659912109375v-23.771484375c0-6.1328125-3.528076171875-9.912109375-8.904052734375-9.912109375-6.3837890625,0-9.575927734375,5.4599609375-9.575927734375,10.1640625v23.51953125h-9.659912109375v-42h9.659912109375Z" style="fill: #37007d;"/>
    <path d="M579.985107421875,6792.841796875c0-12.515625,9.827880859375-22.17578125,21.923828125-22.17578125,9.323974609375,0,15.9599609375,5.7958984375,18.81591796875,11.33984375l-8.14794921875,3.8642578125c-2.10009765625-3.2763671875-5.3759765625-6.1318359375-10.66796875-6.1318359375-7.139892578125,0-12.011962890625,5.4599609375-12.011962890625,12.8515625,0,6.8037109375,4.8720703125,13.271484375,12.095947265625,13.271484375,5.3759765625,0,8.988037109375-2.85546875,11.424072265625-6.7197265625l8.23193359375,3.9482421875c-3.696044921875,6.7197265625-10.919921875,11.84375-20.075927734375,11.84375-12.011962890625,0-21.587890625-9.408203125-21.587890625-22.091796875Z" style="fill: #37007d;"/>
    <path d="M625.0048828125,6802.08203125l9.659912109375-1.8486328125c1.76416015625,3.9482421875,6.300048828125,6.1328125,10.5,6.1328125,4.6201171875,0,7.47607421875-2.0166015625,7.47607421875-4.5361328125,0-3.2763671875-4.6201171875-4.4521484375-7.89599609375-5.2919921875l-5.4599609375-1.4287109375c-5.2919921875-1.427734375-11.424072265625-4.283203125-11.424072265625-11.84375,0-7.7275390625,7.47607421875-12.599609375,16.1279296875-12.599609375,9.407958984375,0,16.2119140625,6.1318359375,17.555908203125,11.591796875l-8.98779296875,1.763671875c-1.260009765625-2.18359375-3.780029296875-5.1240234375-8.736083984375-5.1240234375-3.44384765625,0-6.1318359375,1.6806640625-6.1318359375,4.1162109375,0,2.7724609375,2.85595703125,3.5283203125,6.5517578125,4.5361328125l4.6201171875,1.259765625c6.803955078125,1.8486328125,13.43994140625,4.8720703125,13.43994140625,12.6005859375,0,8.4833984375-8.904052734375,13.607421875-17.219970703125,13.5234375-10.248046875-.083984375-17.723876953125-5.8798828125-20.075927734375-12.8515625Z" style="fill: #37007d;"/>
    <path d="M686.9921875,6802.08203125l9.659912109375-1.8486328125c1.76416015625,3.9482421875,6.300048828125,6.1328125,10.5,6.1328125,4.6201171875,0,7.47607421875-2.0166015625,7.47607421875-4.5361328125,0-3.2763671875-4.6201171875-4.4521484375-7.89599609375-5.2919921875l-5.4599609375-1.4287109375c-5.2919921875-1.427734375-11.424072265625-4.283203125-11.424072265625-11.84375,0-7.7275390625,7.47607421875-12.599609375,16.1279296875-12.599609375,9.407958984375,0,16.2119140625,6.1318359375,17.555908203125,11.591796875l-8.98779296875,1.763671875c-1.260009765625-2.18359375-3.780029296875-5.1240234375-8.736083984375-5.1240234375-3.44384765625,0-6.1318359375,1.6806640625-6.1318359375,4.1162109375,0,2.7724609375,2.85595703125,3.5283203125,6.5517578125,4.5361328125l4.6201171875,1.259765625c6.803955078125,1.8486328125,13.43994140625,4.8720703125,13.43994140625,12.6005859375,0,8.4833984375-8.904052734375,13.607421875-17.219970703125,13.5234375-10.248046875-.083984375-17.723876953125-5.8798828125-20.075927734375-12.8515625Z" style="fill: #37007d;"/>
    <path d="M731.509033203125,6798.8056640625v-26.8798828125h9.659912109375v24.1923828125c0,6.1318359375,3.10791015625,9.4072265625,8.48388671875,9.4072265625,6.300048828125,0,9.156005859375-4.955078125,9.156005859375-9.9111328125v-23.6884765625h9.659912109375v42h-9.659912109375v-4.2001953125h-.419921875c-1.93212890625,2.2685546875-5.712158203125,5.1240234375-11.424072265625,5.1240234375-8.65185546875,0-15.455810546875-6.8037109375-15.455810546875-16.0439453125Z" style="fill: #37007d;"/>
    <path d="M778.124755859375,6759.41015625c0-3.5283203125,2.77197265625-6.2998046875,6.300048828125-6.2998046875,3.52783203125,0,6.2998046875,2.771484375,6.2998046875,6.2998046875s-2.77197265625,6.2998046875-6.2998046875,6.2998046875c-3.528076171875,0-6.300048828125-2.771484375-6.300048828125-6.2998046875ZM789.296630859375,6771.92578125v42h-9.659912109375v-42h9.659912109375Z" style="fill: #37007d;"/>
    <path d="M797.02294921875,6802.08203125l9.659912109375-1.8486328125c1.76416015625,3.9482421875,6.300048828125,6.1328125,10.5,6.1328125,4.6201171875,0,7.47607421875-2.0166015625,7.47607421875-4.5361328125,0-3.2763671875-4.6201171875-4.4521484375-7.89599609375-5.2919921875l-5.4599609375-1.4287109375c-5.2919921875-1.427734375-11.424072265625-4.283203125-11.424072265625-11.84375,0-7.7275390625,7.47607421875-12.599609375,16.1279296875-12.599609375,9.407958984375,0,16.2119140625,6.1318359375,17.555908203125,11.591796875l-8.98779296875,1.763671875c-1.260009765625-2.18359375-3.780029296875-5.1240234375-8.736083984375-5.1240234375-3.44384765625,0-6.1318359375,1.6806640625-6.1318359375,4.1162109375,0,2.7724609375,2.85595703125,3.5283203125,6.5517578125,4.5361328125l4.6201171875,1.259765625c6.803955078125,1.8486328125,13.43994140625,4.8720703125,13.43994140625,12.6005859375,0,8.4833984375-8.904052734375,13.607421875-17.219970703125,13.5234375-10.248046875-.083984375-17.723876953125-5.8798828125-20.075927734375-12.8515625Z" style="fill: #37007d;"/>
    <path d="M838.431640625,6802.08203125l9.659912109375-1.8486328125c1.76416015625,3.9482421875,6.300048828125,6.1328125,10.5,6.1328125,4.6201171875,0,7.47607421875-2.0166015625,7.47607421875-4.5361328125,0-3.2763671875-4.6201171875-4.4521484375-7.89599609375-5.2919921875l-5.4599609375-1.4287109375c-5.2919921875-1.427734375-11.424072265625-4.283203125-11.424072265625-11.84375,0-7.7275390625,7.47607421875-12.599609375,16.1279296875-12.599609375,9.407958984375,0,16.2119140625,6.1318359375,17.555908203125,11.591796875l-8.98779296875,1.763671875c-1.260009765625-2.18359375-3.780029296875-5.1240234375-8.736083984375-5.1240234375-3.44384765625,0-6.1318359375,1.6806640625-6.1318359375,4.1162109375,0,2.7724609375,2.85595703125,3.5283203125,6.5517578125,4.5361328125l4.6201171875,1.259765625c6.803955078125,1.8486328125,13.43994140625,4.8720703125,13.43994140625,12.6005859375,0,8.4833984375-8.904052734375,13.607421875-17.219970703125,13.5234375-10.248046875-.083984375-17.723876953125-5.8798828125-20.075927734375-12.8515625Z" style="fill: #37007d;"/>
    <path d="M923.26806640625,6796.4541015625h-31.66796875c.840087890625,5.3759765625,5.880126953125,9.4921875,11.424072265625,9.4921875,4.115966796875,0,7.475830078125-2.0166015625,10.079833984375-5.1240234375l8.31591796875,3.86328125c-3.10791015625,5.0400390625-10.247802734375,10.248046875-18.73193359375,10.248046875-12.179931640625,0-21.167724609375-9.576171875-21.167724609375-22.17578125,0-12.1796875,8.90380859375-22.091796875,21.3359375-22.091796875,12.935791015625,0,20.579833984375,10.583984375,20.579833984375,22.091796875,0,1.0078125-.083984375,2.6884765625-.16796875,3.6962890625ZM902.772216796875,6779.5703125c-5.712158203125,0-10.080078125,3.779296875-11.340087890625,8.5673828125h21.923828125c-.755859375-4.8720703125-4.619873046875-8.5673828125-10.583740234375-8.5673828125Z" style="fill: #37007d;"/>
    <path d="M927.212890625,6802.08203125l9.659912109375-1.8486328125c1.76416015625,3.9482421875,6.300048828125,6.1328125,10.5,6.1328125,4.6201171875,0,7.47607421875-2.0166015625,7.47607421875-4.5361328125,0-3.2763671875-4.6201171875-4.4521484375-7.89599609375-5.2919921875l-5.4599609375-1.4287109375c-5.2919921875-1.427734375-11.424072265625-4.283203125-11.424072265625-11.84375,0-7.7275390625,7.47607421875-12.599609375,16.1279296875-12.599609375,9.407958984375,0,16.2119140625,6.1318359375,17.555908203125,11.591796875l-8.98779296875,1.763671875c-1.260009765625-2.18359375-3.780029296875-5.1240234375-8.736083984375-5.1240234375-3.44384765625,0-6.1318359375,1.6806640625-6.1318359375,4.1162109375,0,2.7724609375,2.85595703125,3.5283203125,6.5517578125,4.5361328125l4.6201171875,1.259765625c6.803955078125,1.8486328125,13.43994140625,4.8720703125,13.43994140625,12.6005859375,0,8.4833984375-8.904052734375,13.607421875-17.219970703125,13.5234375-10.248046875-.083984375-17.723876953125-5.8798828125-20.075927734375-12.8515625Z" style="fill: #37007d;"/>
    <path d="M986.345458984375,6808.3818359375c0,8.484375-12.179931640625,17.3037109375-16.8837890625,20.916015625h-1.092041015625v-5.4599609375c2.85595703125-2.4365234375,6.887939453125-5.7958984375,9.827880859375-9.99609375h-.671875c-3.360107421875,0-6.132080078125-2.6884765625-6.132080078125-6.2158203125,0-4.4521484375,3.780029296875-6.9716796875,7.47607421875-6.9716796875,4.115966796875,0,7.475830078125,3.19140625,7.475830078125,7.7275390625Z" style="fill: #37007d;"/>
    <path d="M1011.961669921875,6764.1142578125v-10.1640625h48.1318359375v10.1640625h-18.73193359375v49.8115234375h-10.66796875v-49.8115234375h-18.73193359375Z" style="fill: #37007d;"/>
    <path d="M1075.63037109375,6753.9501953125l13.27197265625,47.8798828125,13.27197265625-47.8798828125h12.01171875l-17.639892578125,59.9755859375h-15.287841796875l-17.639892578125-59.9755859375h12.011962890625Z" style="fill: #37007d;"/>
    <path d="M1146.858154296875,6753.9501953125l19.06787109375,59.9755859375h-11.5078125l-3.528076171875-11.591796875h-21.923828125l-3.528076171875,11.591796875h-11.423828125l19.15185546875-59.9755859375h13.69189453125ZM1140.05419921875,6765.7939453125l-8.14794921875,26.7119140625h16.2119140625l-8.06396484375-26.7119140625Z" style="fill: #37007d;"/>
    <path d="M1191.87646484375,6759.41015625c0-3.5283203125,2.77197265625-6.2998046875,6.300048828125-6.2998046875,3.52783203125,0,6.300048828125,2.771484375,6.300048828125,6.2998046875s-2.772216796875,6.2998046875-6.300048828125,6.2998046875c-3.528076171875,0-6.300048828125-2.771484375-6.300048828125-6.2998046875ZM1203.04833984375,6771.92578125v42h-9.659912109375v-42h9.659912109375Z" style="fill: #37007d;"/>
    <path d="M1224.634521484375,6771.92578125v3.8642578125c2.43603515625-2.4365234375,6.300048828125-4.9560546875,11.927978515625-4.9560546875,8.652099609375,0,16.2119140625,6.8876953125,16.2119140625,15.7919921875v27.2998046875h-9.659912109375v-23.771484375c0-6.1328125-3.528076171875-9.912109375-8.904052734375-9.912109375-6.3837890625,0-9.575927734375,5.4599609375-9.575927734375,10.1640625v23.51953125h-9.659912109375v-42h9.659912109375Z" style="fill: #37007d;"/>
    <path d="M1260.4990234375,6792.841796875c0-12.515625,9.827880859375-22.17578125,21.923828125-22.17578125,9.323974609375,0,15.9599609375,5.7958984375,18.81591796875,11.33984375l-8.14794921875,3.8642578125c-2.10009765625-3.2763671875-5.3759765625-6.1318359375-10.66796875-6.1318359375-7.139892578125,0-12.011962890625,5.4599609375-12.011962890625,12.8515625,0,6.8037109375,4.8720703125,13.271484375,12.095947265625,13.271484375,5.3759765625,0,8.988037109375-2.85546875,11.424072265625-6.7197265625l8.23193359375,3.9482421875c-3.696044921875,6.7197265625-10.919921875,11.84375-20.075927734375,11.84375-12.011962890625,0-21.587890625-9.408203125-21.587890625-22.091796875Z" style="fill: #37007d;"/>
    <path d="M1319.126953125,6752.2705078125v61.6552734375h-9.66015625v-61.6552734375h9.66015625Z" style="fill: #37007d;"/>
    <path d="M1330.044677734375,6798.8056640625v-26.8798828125h9.659912109375v24.1923828125c0,6.1318359375,3.10791015625,9.4072265625,8.48388671875,9.4072265625,6.300048828125,0,9.156005859375-4.955078125,9.156005859375-9.9111328125v-23.6884765625h9.659912109375v42h-9.659912109375v-4.2001953125h-.419921875c-1.93212890625,2.2685546875-5.712158203125,5.1240234375-11.424072265625,5.1240234375-8.65185546875,0-15.455810546875-6.8037109375-15.455810546875-16.0439453125Z" style="fill: #37007d;"/>
    <path d="M1373.972412109375,6802.08203125l9.659912109375-1.8486328125c1.76416015625,3.9482421875,6.300048828125,6.1328125,10.5,6.1328125,4.6201171875,0,7.47607421875-2.0166015625,7.47607421875-4.5361328125,0-3.2763671875-4.6201171875-4.4521484375-7.89599609375-5.2919921875l-5.4599609375-1.4287109375c-5.2919921875-1.427734375-11.424072265625-4.283203125-11.424072265625-11.84375,0-7.7275390625,7.47607421875-12.599609375,16.1279296875-12.599609375,9.407958984375,0,16.2119140625,6.1318359375,17.555908203125,11.591796875l-8.98779296875,1.763671875c-1.260009765625-2.18359375-3.780029296875-5.1240234375-8.736083984375-5.1240234375-3.44384765625,0-6.1318359375,1.6806640625-6.1318359375,4.1162109375,0,2.7724609375,2.85595703125,3.5283203125,6.5517578125,4.5361328125l4.6201171875,1.259765625c6.803955078125,1.8486328125,13.439697265625,4.8720703125,13.439697265625,12.6005859375,0,8.4833984375-8.90380859375,13.607421875-17.2197265625,13.5234375-10.248046875-.083984375-17.723876953125-5.8798828125-20.075927734375-12.8515625Z" style="fill: #37007d;"/>
    <path d="M1458.724609375,6796.4541015625h-31.66748046875c.83984375,5.3759765625,5.8798828125,9.4921875,11.423828125,9.4921875,4.11572265625,0,7.47607421875-2.0166015625,10.080078125-5.1240234375l8.31591796875,3.86328125c-3.10791015625,5.0400390625-10.248046875,10.248046875-18.73193359375,10.248046875-12.18017578125,0-21.16796875-9.576171875-21.16796875-22.17578125,0-12.1796875,8.90380859375-22.091796875,21.3359375-22.091796875,12.93603515625,0,20.57958984375,10.583984375,20.57958984375,22.091796875,0,1.0078125-.083984375,2.6884765625-.16796875,3.6962890625ZM1438.22900390625,6779.5703125c-5.7119140625,0-10.080078125,3.779296875-11.33984375,8.5673828125h21.923828125c-.75634765625-4.8720703125-4.6201171875-8.5673828125-10.583984375-8.5673828125Z" style="fill: #37007d;"/>
    <path d="M1467.03759765625,6807.5419921875c0-3.8642578125,3.1083984375-6.8876953125,7.05615234375-6.8876953125s7.05615234375,3.0234375,7.05615234375,6.8876953125c0,3.9482421875-3.1083984375,7.0556640625-7.05615234375,7.0556640625s-7.05615234375-3.107421875-7.05615234375-7.0556640625Z" style="fill: #37007d;"/>
  </g>
  <g style="clip-path: url(#clippath-1);">
    <path d="M650.595708890446986,1738.749778991125822c-184.502647236200573,0-334.601079749598284,151.274448626176309-334.601079749598284,337.2048934266586v1031.991739569006313c0,185.938903734460837,150.098432513397711,337.204893426660419,334.601079749598284,337.204893426660419,184.502679277626157,0,334.601079749598284-151.265989692199582,334.601079749598284-337.204893426660419v-1031.991739569006313c0-185.930444800482292-150.098400471972127-337.2048934266586-334.601079749598284-337.2048934266586M650.595708890446986,3458.766856809831552c-192.003382650793355,0-348.216631145973224-157.380773632570708-348.216631145973224-350.820444823040816v-1031.991739569006313c0-193.439927521803838,156.213248495179869-350.811985889062271,348.216631145973224-350.811985889062271,192.003382650800631,0,348.2166311459805,157.372058367258433,348.2166311459805,350.811985889062271v1031.991739569006313c0,193.439671190470108-156.213248495179869,350.820444823040816-348.2166311459805,350.820444823040816" style="fill: #ff5300;"/>
    <path d="M653.159214465449622,3307.705932183752338h-44.441572963893123v-62.668396868984928h45.869466652424308c19.360769637904014.28555310457341,37.02481810215977,9.407359908262151,37.02481810215977,30.767193526669871,0,21.93093982755272-18.226823905089987,31.615393906409736-38.452711790690955,31.901203342315057M643.474632220924832,3217.982788478869224h-34.756990719368332v-58.678599676282829h33.90026732282422c18.797994197062508,0,36.17648955675395,7.408231844923648,36.17648955675395,29.624724777047959,0,21.07428051383431-17.378495359691442,29.05387489923487-35.319766160209838,29.05387489923487M579.672289619134972,3132.5349950712598v203.367896366678906h72.059031157790741c39.023882082663476,0,69.782744841024396-23.073408577174632,69.782744841024396-60.955078241549927,0-29.624724777047959-23.073344494347111-44.71853896882385-35.319766160209838-47.85167684780572h-1.133945732806751c11.389698269311339-7.685582346852243,21.931003910387517-20.225823802764353,21.931003910387517-43.013679275367394,0-31.329840801836326-26.777460416808026-51.547462001955864-60.954885993050993-51.547462001955864h-66.364182023135072Z" style="fill: #ff5300;"/>
  </g>
  <path d="M804.803933701638016,2999.533638155718108h-61.803214538456814l31.04441586293251-92.293121646032887,30.758798675524304,92.293121646032887ZM758.094533354960731,2867.653730820519741l-69.782744841024396,203.367896366678906h30.758862758353644l14.808197004371323-43.862135986437352h79.752944272950117l14.81665593834623,43.862135986437352h30.75886275836092l-69.497191736452805-203.367896366678906h-31.615586154905031Z" style="fill: #ff5300;"/>
  <polygon points="473.561018699678243 2693.636797367621512 473.561018699678243 2897.004693734296779 604.584298762572871 2897.004693734296779 604.584298762572871 2868.52192504420691 502.900350579235237 2868.52192504420691 502.900350579235237 2693.636797367621512 473.561018699678243 2693.636797367621512" style="fill: #ff5300;"/>
  <g style="clip-path: url(#clippath-2);">
    <path d="M759.52159396665229,2649.491927921269053h-26.491907312229159v-115.072774515989295h21.931003910387517c9.68458224452479,0,17.941270800518396.848456711071776,25.349630811106181,3.704500419460601,20.511440990172559,8.256432224661694,35.034148972801631,26.777396333969591,35.034148972801631,53.832143169867777,0,35.596732165131471-23.636119935174065,57.536130926660917-55.82287638206617,57.536130926660917M688.310955437103985,2490.271720645600908v203.367640035346994h73.20137174174306c56.965152883189148,0,99.122044679170358-38.738328978093705,99.122044679170358-103.959785920274953,0-55.831527564538192-40.44344500288571-99.407854115072041-106.530404689758143-99.407854115072041h-65.793011731155275Z" style="fill: #ff5300;"/>
    <path d="M544.638140646333341,2446.691292793745561c-31.04441586293251,0-58.964248905103887-23.644514786317814-58.964248905103887-62.097290659839928,0-40.157891898308662,28.205418188161275-62.374641161766704,58.964248905103887-62.374641161766704,30.75886275836092,0,59.241439199948218,22.502302368031451,59.241439199948218,62.374641161766704,0,38.452775873522114-28.197023337015708,62.097290659839928-59.241439199948218,62.097290659839928M544.638140646333341,2490.26761934427941c56.393982591209351-.285553104571591,105.959234397778346-44.718538968822031,105.959234397778346-105.673617210373777,0-59.527312718688336-46.717795197830128-106.236520816870325-105.959234397778346-105.950967712298734-59.249834051093785.285553104571591-105.959234397778346,46.423654993610398-105.959234397778346,105.950967712298734,0,60.955078241551746,49.565219765157963,105.959170314945368,105.959234397778346,105.673617210373777" style="fill: #ff5300;"/>
    <path d="M756.552444057735556,2235.057992605762593c-31.04441586293251,0-58.964216863692855-23.644514786317814-58.964216863692855-62.097290659839928,0-40.157891898308662,28.196959254186368-62.374641161766704,58.964216863692855-62.374641161766704,30.75886275836092,0,59.241439199948218,22.502302368029632,59.241439199948218,62.374641161766704,0,38.452775873522114-28.197023337015708,62.097290659839928-59.241439199948218,62.097290659839928M756.552444057735556,2278.634319156296442c56.393982591202075-.285553104571591,105.959234397778346-44.718538968822031,105.959234397778346-105.673617210373777,0-59.527312718688336-46.717795197830128-106.236520816870325-105.959234397778346-105.950967712298734-59.249834051093785.285553104571591-105.959234397778346,46.423654993610398-105.959234397778346,105.950967712298734,0,60.955078241551746,49.565251806568995,105.959170314945368,105.959234397778346,105.673617210373777" style="fill: #ff5300;"/>
  </g>
  <polygon points="474.0011395978363 1879.718170056768031 474.0011395978363 2083.085810092113206 518.719902856573754 2083.085810092113206 518.719902856573754 2002.190717483704248 609.005757919454481 2002.190717483704248 609.005757919454481 1957.472178514880397 518.719902856573754 1957.472178514880397 518.719902856573754 1924.436709025590062 615.271713263260608 1924.436709025590062 615.271713263260608 1879.718170056768031 474.0011395978363 1879.718170056768031" style="fill: #ff5300;"/>
  <g style="clip-path: url(#clippath-3);">
    <path d="M4177.570659782490111,2114.187516007891645c-103.330236167283147,0-187.098034020702471,83.768054184753055-187.098034020702471,187.098290352036202,0,103.330236167286785,83.767797853419324,187.097777689372379,187.098034020702471,187.097777689372379h332.946204666011909c103.330236167283147,0,187.098290352034383-83.767541522085594,187.098290352034383-187.097777689372379,0-103.330236167283147-83.768054184751236-187.098290352036202-187.098290352034383-187.098290352036202h-332.946204666011909Z" style="fill: #d2c8b4;"/>
  </g>
  <g>
    <path d="M4207.63232421875,2302.20703125c11.490234375-10.884765625,22.17431640625-18.34375,22.17431640625-28.826171875,0-9.8779296875-8.66796875-15.9248046875-17.7392578125-15.9248046875-11.8935546875,0-17.33642578125,8.66796875-20.5615234375,15.7236328125l-30.64111328125-5.64453125c6.2490234375-20.158203125,23.3837890625-39.7119140625,52.0087890625-39.7119140625,27.2138671875,0,47.775390625,18.142578125,47.97705078125,43.33984375.20166015625,18.142578125-10.482421875,29.6337890625-20.96484375,39.5107421875l-32.65673828125,30.8427734375h53.21826171875v30.2373046875h-97.76806640625v-26.810546875l44.953125-42.736328125Z" style="fill: #ff5300;"/>
    <path d="M4287.6630859375,2297.7724609375l-18.7470703125-24.794921875,53.41943359375-43.138671875h30.23779296875v141.9150390625h-30.23779296875v-102.8076171875l-34.67236328125,28.826171875Z" style="fill: #ff5300;"/>
    <path d="M4384.8251953125,2355.42578125c0-10.0791015625,8.0634765625-17.94140625,17.94091796875-17.94140625,10.07958984375,0,17.94091796875,7.8623046875,17.94091796875,17.94140625,0,9.876953125-7.861328125,17.9404296875-17.94091796875,17.9404296875-9.87744140625,0-17.94091796875-8.0634765625-17.94091796875-17.9404296875Z" style="fill: #ff5300;"/>
    <path d="M4523.31201171875,2299.3857421875v30.2373046875h-72.36865234375v-30.2373046875h72.36865234375Z" style="fill: #ff5300;"/>
  </g>
  <g>
    <path d="M335.785888671875,6452.5546875h-8.702392578125v30.22265625h-18.463134765625v-83.9658203125h29.39990234375c16.228759765625,0,31.163818359375,9.8779296875,31.163818359375,26.6953125,0,11.876953125-6.350341796875,19.2861328125-15.052734375,23.4013671875l25.51904296875,33.869140625h-21.16796875l-22.696533203125-30.22265625ZM338.725830078125,6435.85546875c7.761474609375,0,11.87744140625-3.880859375,11.87744140625-9.408203125s-4.586181640625-9.1728515625-12.347900390625-9.1728515625h-11.171875v18.5810546875h11.642333984375Z" style="fill: #37007d;"/>
    <path d="M379.52783203125,6452.4365234375c0-17.404296875,13.406494140625-31.5166015625,30.9287109375-31.5166015625,17.875244140625,0,29.635009765625,14.2294921875,29.635009765625,31.3994140625,0,2.1162109375-.117431640625,4.9384765625-.352783203125,6.3505859375h-42.21826171875c.8232421875,5.76171875,6.3505859375,10.23046875,13.52392578125,10.23046875,5.64501953125,0,9.643310546875-2.234375,12.583251953125-5.76171875l13.994384765625,6.5849609375c-5.527099609375,8.5849609375-15.523193359375,14.7001953125-26.812744140625,14.7001953125-16.228759765625,0-31.281494140625-12.11328125-31.281494140625-31.9873046875ZM410.57421875,6436.2080078125c-7.76171875,0-12.465576171875,4.8212890625-13.406494140625,9.7607421875h25.8720703125c-.8232421875-5.056640625-5.174560546875-9.7607421875-12.465576171875-9.7607421875ZM439.621337890625,6390.4619140625l-22.226318359375,21.16796875h-16.111328125l15.99365234375-21.16796875h22.343994140625Z" style="fill: #37007d;"/>
    <path d="M444.672607421875,6465.8427734375l17.287109375-3.29296875c2.822509765625,4.46875,7.5263671875,7.2919921875,13.75927734375,7.2919921875,4.2333984375,0,8.23193359375-1.529296875,8.23193359375-4.7041015625,0-3.763671875-5.644775390625-4.7041015625-11.172119140625-6.2333984375l-6.114990234375-1.646484375c-9.407958984375-2.5869140625-18.1103515625-7.1728515625-18.1103515625-18.2275390625,0-9.7607421875,9.878173828125-18.5810546875,25.048583984375-18.5810546875s23.637451171875,10.349609375,25.283935546875,17.052734375l-15.993408203125,2.939453125c-.8232421875-2.234375-4.351318359375-5.9970703125-9.643310546875-5.9970703125-4.58642578125,0-7.40869140625,1.9990234375-7.291259765625,4.3505859375.11767578125,3.29296875,3.880859375,3.9990234375,9.760986328125,5.64453125l6.232666015625,1.7646484375c9.87841796875,2.822265625,18.22802734375,7.408203125,18.22802734375,17.9921875,0,12.4658203125-12.465576171875,20.109375-25.283935546875,19.9921875-15.8759765625-.1171875-27.0478515625-8.8203125-30.22314453125-18.345703125Z" style="fill: #37007d;"/>
    <path d="M507.58349609375,6452.4365234375c0-17.404296875,13.406494140625-31.5166015625,30.9287109375-31.5166015625,17.875244140625,0,29.635009765625,14.2294921875,29.635009765625,31.3994140625,0,2.1162109375-.117431640625,4.9384765625-.352783203125,6.3505859375h-42.21826171875c.8232421875,5.76171875,6.3505859375,10.23046875,13.52392578125,10.23046875,5.64501953125,0,9.643310546875-2.234375,12.583251953125-5.76171875l13.994384765625,6.5849609375c-5.527099609375,8.5849609375-15.523193359375,14.7001953125-26.812744140625,14.7001953125-16.228759765625,0-31.281494140625-12.11328125-31.281494140625-31.9873046875ZM538.6298828125,6436.2080078125c-7.76171875,0-12.465576171875,4.8212890625-13.406494140625,9.7607421875h25.8720703125c-.8232421875-5.056640625-5.174560546875-9.7607421875-12.465576171875-9.7607421875Z" style="fill: #37007d;"/>
    <path d="M595.778076171875,6421.6259765625v7.99609375c2.93994140625-3.998046875,12.230224609375-8.8193359375,23.519775390625-8.8193359375v17.6396484375c-6.58544921875-.8232421875-13.171142578125-.1171875-17.287109375,2.5869140625-3.6455078125,2.3525390625-6.232666015625,6.703125-6.232666015625,13.6416015625v28.1064453125h-18.1103515625v-61.1513671875h18.1103515625Z" style="fill: #37007d;"/>
    <path d="M642.578857421875,6421.6259765625l11.4072265625,39.630859375,11.171875-39.630859375h18.81591796875l-21.05029296875,61.1513671875h-18.227783203125l-20.815185546875-61.1513671875h18.6982421875Z" style="fill: #37007d;"/>
    <path d="M688.79052734375,6465.8427734375c0-11.4072265625,8.232177734375-17.404296875,18.93359375-19.521484375,3.6455078125-.705078125,17.639892578125-3.0576171875,21.16796875-3.52734375,0-3.880859375-3.998291015625-7.173828125-10.231201171875-7.173828125-4.821533203125,0-9.172607421875,2.3515625-10.231201171875,5.4091796875l-17.16943359375-1.8818359375c2.11669921875-7.87890625,10.3486328125-18.3447265625,28.223876953125-18.3447265625,16.69921875,0,26.93017578125,10.4658203125,26.93017578125,24.4599609375v37.5146484375h-17.522216796875v-6.232421875h-1.52880859375c-4.115966796875,4.3505859375-10.3486328125,7.6435546875-17.757568359375,7.6435546875-11.760009765625,0-20.815185546875-7.9970703125-20.815185546875-18.345703125ZM728.06884765625,6463.4912109375c.8232421875-1.529296875.94091796875-2.705078125.94091796875-4.46875v-4.1162109375c-3.17529296875.587890625-5.99755859375,1.05859375-10.70166015625,1.9990234375-4.703857421875.94140625-10.819091796875,2.1171875-10.819091796875,7.291015625,0,4.1162109375,3.998291015625,5.52734375,8.1142578125,5.52734375,4.7041015625,0,10.46630859375-2.4697265625,12.465576171875-6.232421875Z" style="fill: #37007d;"/>
    <path d="M765.225341796875,6463.373046875v-26.1064453125h-12.230224609375v-14.7001953125h12.230224609375v-16.3466796875h18.1103515625v16.3466796875h15.8759765625v14.7001953125h-15.8759765625v21.873046875c0,6.3505859375,2.93994140625,9.408203125,9.407958984375,9.408203125,2.93994140625,0,6.350341796875-.587890625,7.5263671875-.9404296875v14.69921875c-1.763916015625.7060546875-6.115234375,2.234375-13.759033203125,2.234375-12.347900390625,0-21.28564453125-9.0546875-21.28564453125-21.16796875Z" style="fill: #37007d;"/>
    <path d="M810.849853515625,6404.3388671875c0-5.6455078125,4.46875-9.99609375,9.995849609375-9.99609375,5.644775390625,0,9.99609375,4.3505859375,9.99609375,9.99609375,0,5.5263671875-4.351318359375,9.9951171875-9.99609375,9.9951171875-5.527099609375,0-9.995849609375-4.46875-9.995849609375-9.9951171875ZM829.90087890625,6422.56640625v60.2109375h-18.1103515625v-60.2109375h18.1103515625Z" style="fill: #37007d;"/>
    <path d="M841.775634765625,6452.3193359375c0-17.640625,13.994384765625-31.5166015625,31.63427734375-31.5166015625,17.757568359375,0,31.63427734375,13.8759765625,31.63427734375,31.5166015625,0,20.109375-15.287841796875,32.1044921875-31.63427734375,32.1044921875-16.228759765625,0-31.63427734375-11.9951171875-31.63427734375-32.1044921875ZM888.2275390625,6452.3193359375c0-10.1142578125-7.055908203125-16.111328125-14.817626953125-16.111328125-7.761474609375,0-14.8173828125,5.9970703125-14.8173828125,16.111328125,0,10.23046875,6.4677734375,16.69921875,14.8173828125,16.69921875s14.817626953125-6.46875,14.817626953125-16.69921875Z" style="fill: #37007d;"/>
    <path d="M933.49853515625,6421.6259765625v5.9970703125c2.351806640625-2.822265625,8.81982421875-6.8203125,17.16943359375-6.8203125,13.876708984375,0,24.343017578125,9.99609375,24.343017578125,24.578125v37.396484375h-18.1103515625v-32.927734375c0-8.1142578125-4.2333984375-13.1708984375-11.406982421875-13.1708984375-7.64404296875,0-11.9951171875,5.8798828125-11.9951171875,13.6416015625v32.45703125h-18.1103515625v-61.1513671875h18.1103515625Z" style="fill: #37007d;"/>
  </g>
  <g>
    <path d="M1008.175537109375,6432.5625c0-5.8798828125,4.703857421875-10.466796875,10.46630859375-10.466796875,5.8798828125,0,10.46630859375,4.5869140625,10.46630859375,10.466796875,0,5.7626953125-4.58642578125,10.4658203125-10.46630859375,10.4658203125-5.762451171875,0-10.46630859375-4.703125-10.46630859375-10.4658203125ZM1008.175537109375,6473.251953125c0-5.8798828125,4.703857421875-10.466796875,10.46630859375-10.466796875,5.8798828125,0,10.46630859375,4.5869140625,10.46630859375,10.466796875,0,5.76171875-4.58642578125,10.4658203125-10.46630859375,10.4658203125-5.762451171875,0-10.46630859375-4.7041015625-10.46630859375-10.4658203125Z" style="fill: #37007d;"/>
    <path d="M1074.025146484375,6441.2646484375c0-23.6376953125,13.406494140625-42.6884765625,34.574462890625-42.6884765625,21.05029296875,0,34.691650390625,19.05078125,34.691650390625,42.6884765625,0,24.3427734375-12.935791015625,42.923828125-34.691650390625,42.923828125-21.16796875,0-34.574462890625-18.93359375-34.574462890625-42.923828125ZM1124.593017578125,6441.3828125c0-10.8193359375-4.115966796875-24.6962890625-15.75830078125-24.6962890625-11.877685546875,0-15.99365234375,13.876953125-15.99365234375,24.6962890625,0,11.171875,4.58642578125,24.6953125,15.99365234375,24.6953125s15.75830078125-13.40625,15.75830078125-24.6953125Z" style="fill: #37007d;"/>
    <path d="M1175.2734375,6442.205078125c6.703125-6.349609375,12.93603515625-10.701171875,12.93603515625-16.81640625,0-5.7626953125-5.056884765625-9.2900390625-10.348876953125-9.2900390625-6.938232421875,0-10.113525390625,5.056640625-11.9951171875,9.1728515625l-17.875-3.29296875c3.6455078125-11.759765625,13.641357421875-23.1669921875,30.340576171875-23.1669921875,15.8759765625,0,27.87109375,10.583984375,27.98876953125,25.283203125.117431640625,10.583984375-6.115234375,17.2880859375-12.23046875,23.0498046875l-19.051025390625,17.9931640625h31.046142578125v17.6396484375h-57.03564453125v-15.640625l26.224609375-24.931640625Z" style="fill: #37007d;"/>
    <path d="M1243.947265625,6442.205078125c6.703125-6.349609375,12.93603515625-10.701171875,12.93603515625-16.81640625,0-5.7626953125-5.056884765625-9.2900390625-10.348876953125-9.2900390625-6.938232421875,0-10.113525390625,5.056640625-11.9951171875,9.1728515625l-17.875-3.29296875c3.6455078125-11.759765625,13.641357421875-23.1669921875,30.340576171875-23.1669921875,15.8759765625,0,27.87109375,10.583984375,27.98876953125,25.283203125.117431640625,10.583984375-6.115234375,17.2880859375-12.23046875,23.0498046875l-19.051025390625,17.9931640625h31.046142578125v17.6396484375h-57.03564453125v-15.640625l26.224609375-24.931640625Z" style="fill: #37007d;"/>
    <path d="M1313.7939453125,6461.7265625l17.99267578125-2.939453125c1.76416015625,3.6455078125,5.880126953125,9.2900390625,14.34716796875,9.2900390625,7.879150390625,0,12.818359375-5.64453125,12.818359375-11.6416015625,0-6.2333984375-5.056640625-10.9375-13.171142578125-10.9375h-23.637451171875v-45.6279296875h46.5693359375v17.6396484375h-28.929443359375v12.818359375h9.05517578125c15.75830078125,0,27.518310546875,9.7607421875,27.518310546875,25.63671875s-13.171142578125,28.458984375-30.340576171875,28.458984375c-17.287109375,0-29.63525390625-11.759765625-32.222412109375-22.697265625Z" style="fill: #37007d;"/>
    <path d="M1380.586181640625,6461.7265625l17.992919921875-2.939453125c1.763916015625,3.6455078125,5.8798828125,9.2900390625,14.34716796875,9.2900390625,7.87890625,0,12.818359375-5.64453125,12.818359375-11.6416015625,0-6.2333984375-5.05712890625-10.9375-13.17138671875-10.9375h-23.637451171875v-45.6279296875h46.569580078125v17.6396484375h-28.9296875v12.818359375h9.05517578125c15.75830078125,0,27.5185546875,9.7607421875,27.5185546875,25.63671875s-13.17138671875,28.458984375-30.3408203125,28.458984375c-17.287109375,0-29.63525390625-11.759765625-32.222412109375-22.697265625Z" style="fill: #37007d;"/>
    <path d="M1474.896484375,6442.205078125c6.703125-6.349609375,12.93603515625-10.701171875,12.93603515625-16.81640625,0-5.7626953125-5.056640625-9.2900390625-10.3486328125-9.2900390625-6.9384765625,0-10.11376953125,5.056640625-11.9951171875,9.1728515625l-17.87548828125-3.29296875c3.6455078125-11.759765625,13.6416015625-23.1669921875,30.3408203125-23.1669921875,15.8759765625,0,27.87109375,10.583984375,27.98876953125,25.283203125.11767578125,10.583984375-6.115234375,17.2880859375-12.23046875,23.0498046875l-19.05126953125,17.9931640625h31.04638671875v17.6396484375h-57.03564453125v-15.640625l26.224609375-24.931640625Z" style="fill: #37007d;"/>
    <path d="M1575.3193359375,6442.205078125c6.703125-6.349609375,12.93603515625-10.701171875,12.93603515625-16.81640625,0-5.7626953125-5.056640625-9.2900390625-10.3486328125-9.2900390625-6.9384765625,0-10.11376953125,5.056640625-11.9951171875,9.1728515625l-17.87548828125-3.29296875c3.6455078125-11.759765625,13.6416015625-23.1669921875,30.3408203125-23.1669921875,15.8759765625,0,27.87109375,10.583984375,27.98876953125,25.283203125.11767578125,10.583984375-6.115234375,17.2880859375-12.23046875,23.0498046875l-19.05126953125,17.9931640625h31.04638671875v17.6396484375h-57.03564453125v-15.640625l26.224609375-24.931640625Z" style="fill: #37007d;"/>
    <path d="M1612.35888671875,6470.076171875v-15.640625l37.16162109375-54.212890625h17.64013671875v53.037109375h14.11181640625v16.81640625h-14.11181640625v12.701171875h-17.64013671875v-12.701171875h-37.16162109375ZM1649.5205078125,6428.4462890625l-16.34619140625,24.8134765625h16.34619140625v-24.8134765625Z" style="fill: #37007d;"/>
    <path d="M1718.54296875,6470.076171875v-15.640625l37.16162109375-54.212890625h17.6396484375v53.037109375h14.1123046875v16.81640625h-14.1123046875v12.701171875h-17.6396484375v-12.701171875h-37.16162109375ZM1755.70458984375,6428.4462890625l-16.34619140625,24.8134765625h16.34619140625v-24.8134765625Z" style="fill: #37007d;"/>
    <path d="M1790.9794921875,6441.2646484375c0-23.6376953125,13.40625-42.6884765625,34.57421875-42.6884765625,21.05029296875,0,34.69189453125,19.05078125,34.69189453125,42.6884765625,0,24.3427734375-12.93603515625,42.923828125-34.69189453125,42.923828125-21.16796875,0-34.57421875-18.93359375-34.57421875-42.923828125ZM1841.54736328125,6441.3828125c0-10.8193359375-4.1162109375-24.6962890625-15.75830078125-24.6962890625-11.87744140625,0-15.99365234375,13.876953125-15.99365234375,24.6962890625,0,11.171875,4.58642578125,24.6953125,15.99365234375,24.6953125s15.75830078125-13.40625,15.75830078125-24.6953125Z" style="fill: #37007d;"/>
  </g>
  <g style="clip-path: url(#clippath-5);">
    <path d="M4170.640229541626468,6675.034717208094662c-20.931503961546696,6.081204535796132-32.917557076267258,28.532977589875372-26.164251786263776,53.37020206701709,6.660769678914221,24.526454777718754,28.457391888157872,37.335619842997403,49.691110490901337,31.162007861785241,21.385210420339718-6.21558623693636,33.177989710246038-28.776556438726402,26.357525611085293-53.261004919306288-6.895825510953728-24.795218180002848-28.801644867904542-37.394415842427406-49.884384315722855-31.271205009496043" style="fill: #37007d;"/>
    <path d="M4194.168626234255498,6759.565260983232292c-21.233718602743465,6.173611981215799-43.030340811987116-6.635553084066487-49.691110490901337-31.162007861785241-6.753305290003482-24.82882962599615,5.232747824724356-47.288997531220957,26.164251786271052-53.370202067013452,21.082739447811036-6.123210832931363,42.988558804769127,6.484381680635124,49.884384315722855,31.271205009492405,6.812005165178562,24.484448480583524-4.972315190752852,47.045418682373565-26.357525611092569,53.261004919306288M4166.484073314037232,6660.098803117234638c-31.170402712923533,9.063010804264195-47.68377982491802,40.98100384886493-38.679629102916806,73.318931699184759,9.080024796472571,32.640302698593587,39.234073775442084,50.337994650260953,70.563914577280229,41.241372400003456,31.472873685452214-9.155418249683862,48.002912334064604-40.4182284080307,38.914684934956313-73.058531106627925-8.995691788026306-32.337959891734499-39.62010876241402-50.564783796824486-70.798970409319736-41.501772992560291" style="fill: #ff5300;"/>
  </g>
  <polygon points="4032.610933536154334 6701.331780666096165 4063.210230039934686 6811.272385364012734 4078.71571235195006 6806.761867089742736 4065.477993339896784 6759.187300433241035 4115.622810289591143 6744.605828492600267 4111.423077735445986 6729.520377110555273 4061.278260785751627 6744.093454200050473 4052.366389343500487 6712.066296049153607 4106.576621229032753 6696.317298971127457 4102.334850336337695 6681.072281334505533 4032.610933536154334 6701.331780666096165" style="fill: #1d1d1b;"/>
  <g style="clip-path: url(#clippath-6);">
    <path d="M4516.401719183486421,6598.518116216935596c-6.131445476996305-22.014984463246947-28.860857405750721-29.38970098642676-49.641125881040352-23.350502747769497l-37.64635750099842,10.936087934769603,30.599296503780351,109.940604697916569,23.636312183676637-6.870737081771949-11.01199405065563-39.569899862624879,11.146311668962881-3.242174819610227,40.073815221199766,31.12839641579194,27.113703042406996-7.878695964587678-45.021522604016354-34.840971272227762c9.642672071640845-8.634649105988501,15.077408986486262-20.696287922426563,10.751561416684126-36.25210729988612M4481.165901534724981,6623.405741842358111l-14.909255632264831,4.334114255281747-6.777913097939745-24.333245035733853,14.31251628985774-4.157726257002651c9.945143044162251-2.889430864466703,17.143439527644659.184782849424664,19.159229127610161,7.416722820318682,2.007586997315229,7.240334822035948-1.848148908407893,13.85070335266937-11.784576687263325,16.740134217136074" style="fill: #1d1d1b;"/>
    <path d="M4319.335215967344993,6653.127231697479147c-6.207319551453111-22.325754162666271-27.113703042406996-27.239465602488053-46.844038379153062-21.502610170693515l-33.278727923978295,9.667760500818986,30.599296503787627,109.940604697916569,15.354246825743758-4.468495956421975-12.380803367006592-44.500368963323126,13.707830676132289-3.981370300138224,46.112981418445997,34.698194719945604,19.277141540624143-5.602441689236002-48.675269419611141-36.277291853319184c10.953037844141363-5.678027390953503,20.973542300103873-20.578695923573832,16.127342125015275-37.973980985549133M4268.585457072600548,6687.178670423731091l-9.810569094523089-35.260938119361526,18.369728623045376-5.333678286951908c12.347223962424323-3.594982857583091,23.232846666083788-.764347992546391,26.53388156794972,11.095686230764841,3.552752270530618,12.775585660700017-4.518865063291742,20.612307369567134-16.723312473426631,24.156857037451118l-18.369728623045376,5.342073138097476Z" style="fill: #1d1d1b;"/>
    <path d="M4584.458200664776086,6564.097111791834323c-16.261147080658702,4.728896548982448-27.836044737814518,21.065853621275892-21.788163275268744,42.778463236241805,5.778733563267451,20.788695367849868,24.098221245112654,29.280535880134266,40.518806414685969,24.509633034016588,16.404179964280047-4.770870804703009,27.760170663350436-21.880570720688411,21.973234497439989-42.669266088534641-5.997127858681779-21.553011318977951-24.442730556191236-29.347726730702561-40.703877636857214-24.618830181723752" style="fill: #ff5300;"/>
    <path d="M4603.184742502868176,6631.387771375419106c-16.421097832237137,4.770870804699371-34.731870248768246-3.720969707585027-40.519319077342516-24.509665075431258-6.039166197238956-21.712609614969551,5.527016194602766-38.057961538404925,21.796878540575563-42.778463236241805,16.261147080658702-4.728896548982448,34.70674977816816,3.057391970185563,40.703877636849938,24.618830181720114,5.786936165910447,20.788663326431561-5.569054533152666,37.898395283831633-21.981437100082985,42.669298129952949M4577.902270500919258,6540.539140871700511c-31.287802463288244,9.256220546249097-49.044386538633262,41.37575410115096-40.090733089156856,73.562510548035789,9.172047744890733,32.951104439434857,42.148561027672258,49.65762721057763,71.933236556287738,40.838195255164464,29.767757660672942-8.811037104267598,49.287901304647676-40.451807812609331,40.115853559756943-73.402912252044189-8.954166112132953-32.178361595742899-40.678757166249852-50.253982055986853-71.958357026887825-40.997793551156064" style="fill: #37007d;"/>
    <path d="M4373.55441944951599,6602.250012047570635l-37.20085364485567,10.810101084774942,30.599296503780351,109.940604697916569,23.644514786319633-6.870769123186619-9.945143044162251-35.722911263630522,14.908742969601008-4.325751445554488c23.040085503933369-6.70277597605309,36.269345582011738-27.021071307070088,30.188141046215605-48.884884366885672-6.9886174533749-25.097593028280244-29.457084085493989-31.548395304336736-52.194698616898677-24.946389583434211M4388.572872229487984,6653.310348393242748l-14.304313687207468,4.157726257002651-7.626882471675344-27.407458749625221,14.304313687214744-4.157726257002651c10.99507618269854-3.200200563886028,19.184349598202971-.08398055285943,21.544648509247054,8.382675405995542,2.183942954179656,7.853479369736306-2.922689854880446,15.824582779740012-13.917766037578986,19.024783343629679" style="fill: #1d1d1b;"/>
    <path d="M4657.615163003145426,6398.788042081811l-13.657333403607481-8.601005618576892,15.78232015127287-26.197959356515639,13.657846066271304,8.601069701413508c9.172047744890733,5.778797646096791,13.632212933000119,14.270670199799497,8.323591033811681,23.081739345485403-5.719777356753184,9.491372502536251-15.043573250572081,8.827794765140425-24.106423847748374,3.116155928193621M4655.078508135236916,6345.585833161931077l-49.203824627533322,81.684849444307474,11.414434242913558,7.189901632336841,19.915406558924587-33.060269545727351,10.17994254486257,6.417190830066829,5.157386412924097,48.85130496230704,14.329434157814831,9.021004507125326-5.644415944960201-51.371170127924415c9.650874674283841,3.71257485643946,24.349938613770064,1.604313728224952,32.136259174352745-11.322411294491758,9.995383985362423-16.588994855123019,1.108889345050557-32.598360484291334-13.548136255893041-41.829364435689058l-24.736486263405823-15.581035972310929ZM4583.338545403763419,6379.830481630167924l-26.64307871566416-10.415318791074242,28.583506903822126-35.428963307913364-1.940428188157966,45.844282098987605ZM4584.926261678199808,6313.84426015702411l-63.575809786569152,77.854682589015283,13.254380548678455,5.182442800687568,13.615807727706851-16.832509621141071,34.370443069739849,13.447526207826741-.839741445764957,21.821806762676715,13.262583151321451,5.182506883524184,3.544549667887622-101.322777335633873-13.632212933000119-5.333678286955546ZM4493.523122419122956,6339.538208030717215l-13.951601773485891-2.713010824769299,6.736387422053667-36.16809470561202,13.943399170835619,2.713010824769299c11.750740951349144,2.29307601905748,20.6121151210682,10.0374223239196,18.352810755088285,22.183041693217092s-13.464572241449787,16.252944478015706-25.080995574491681,13.985053012394928M4475.548144048363611,6285.151748353993753l-17.546392382573686,94.24194468533824,13.170303871571377,2.570234272483503,6.014045726638869-32.337927850316191,13.69116913950711,2.671036569048738c18.848555552438484,3.670536517882283,37.495634677405178-4.460101105280046,41.157584095650236-24.123277632876125,4.00645872932364-21.51939987298465-10.776681887284212-34.110266767096618-29.885157411023101-37.839631325823575l-26.601553039770806-5.18237871785459ZM4339.914008015170111,6283.446632329203567l5.946886917481606,95.753850968143524,61.777901819361432-3.989733109865483-.831538843114686-13.413946803251747-48.271803902025567,3.116220011026599-1.73843909802963-28.028998148467508,43.945956332216156-2.830666906455008-.82333624047169-13.145119318134675-43.93775372957316,2.838997674767597-1.730236495386634-27.894616447323642,47.482303397453506-3.06578682133113-.82333624047169-13.279565102107881-60.996603917439643,3.939364002999355ZM4376.737029275704117,6246.598170183908223l-13.80036628722155,23.778896487459861,11.809697157856135-.755985182819131,18.655281727616966-24.098028996610083-16.664612598251551,1.075117691969353ZM4227.965912444189598,6309.694960792585334l25.240177332059829,92.410905893382733,12.910127568931784-3.678995451860828-19.83132988181751-72.613347664646426.252230031328509-.07561774313217,59.585756262531504,61.274146667867171,16.580535921144474-4.728928590397118-25.240433663399017-92.410905893386371-12.909871237592597,3.678995451860828,19.587302453131997,71.70619107839957-.260432633971504.075553660299192-59.333526231202995-60.375320849929267-16.580535921144474,4.737323441542685ZM4181.836013157793786,6329.979612636190723l38.015987282684364,87.732474575521337,12.380803367006592-5.60250577206898-38.01598728269164-87.732346409855381-12.380803366999316,5.602377606403024ZM4167.682934956843383,6449.655200726912881c21.704086598161666-14.665420452081889,26.617701913732162-42.148496944835642,12.91833017157478-63.340369457524503-1.234748029375623-1.906656535087677-2.721469758747844-3.956089622457512-3.922638383548474-5.568798201828031l-35.302976457911427,23.854450147759053,6.887622908310732,10.65056687161632,23.241305600058695-15.698627971160022c6.887622908310732,11.616423333041894,3.578129072462616,29.15454903013233-9.902848374273162,38.267960982677323-16.891465827655338,11.406487971602473-36.773036650665745,5.510034243816335-47.860392113121634-11.641671969304298-11.3811111696632-17.59688965510577-7.987796988039918-38.419132386112324,7.248793756014493-48.716923261166812,11.288831889920402-7.626690223176411,22.409766756944009-6.282745046089985,31.430835346902313-1.587459943104477l6.350096103742544-12.825986808984453c-12.658153868927911-6.425585681208759-29.238689790072385-7.467123968599481-44.811330911237746,3.057391970185563-22.586122713808436,15.261839380327729-27.726591258775443,44.827928365029948-12.431044308206765,68.480838002495148,15.30374955321895,23.661304488607129,44.004656207391236,30.03652106294976,66.154246661695652,15.068629638339189M4083.158959672109631,6471.838242420126335l-20.125085589032096,20.654281625291333-20.074588316500012-41.098627889135969,40.199673905532109,20.444346263844636ZM4024.824612975571654,6443.540416786545393l43.778059309326636,91.033413353139622,10.020504455962509-10.280969131352322-9.524759658612311-19.553915297052299,25.970977961449535-26.651537649639067,19.159229127602885,9.651002839946159,10.020504455962509-10.280937089934014-89.135119627782842-44.483547219617321-10.289396023908921,10.566490194509242ZM3931.540258066183014,6572.623396826944372l79.299430062659667,51.329131789370877,7.240334822039586-11.692041076170426-60.862542630464304-39.40190671549135.142776552282157-.226789146563533,59.955386044217448,6.694381124907522,6.181942749521113-9.995383985358785-31.783547260623891-52.689802585911821.142776552282157-.226789146563533,61.089395859860815,39.536256375216908,7.164717078907415-11.574449077321333-79.299430062659667-51.337558681931114-9.415818842244335,15.2114702734616,34.337119996489491,56.100002594073885-.134573949639162.235183997705462-64.709306939548696-7.063946823756851-9.348660033079796,15.102241084332491ZM3911.373134138593741,6624.187712614024349l87.236729778174777,35.395351861916424,4.989489390034578-12.859598254977755-87.236986109506688-35.403746713061992-4.989233058702666,12.867993106123322Z" style="fill: #ff5300;"/>
  </g>
</svg>